{"glyphs":{"0":{"ha":554,"x_min":76,"x_max":682,"o":"m 545 607 q 547 654 549 632 q 536 693 545 677 q 512 720 527 710 q 479 729 498 729 l 386 729 q 348 720 367 729 q 313 693 329 710 q 285 654 297 677 q 267 607 273 632 l 216 364 q 213 317 211 339 q 225 278 216 295 q 249 252 234 262 q 283 243 264 243 l 375 243 q 414 252 395 243 q 449 278 433 262 q 476 316 465 294 q 493 364 488 338 l 545 607 m 559 243 q 527 149 549 192 q 469 71 505 106 q 398 18 434 35 q 323 0 362 0 l 231 0 q 114 71 154 0 q 98 243 76 142 l 201 729 q 292 900 222 830 q 362 954 326 936 q 437 972 399 972 l 529 972 q 646 900 605 972 q 664 729 682 830 l 559 243 z "},"1":{"ha":554,"x_min":184,"x_max":529,"o":"m 184 0 l 237 243 l 283 243 l 386 729 l 340 729 l 392 972 l 529 972 l 375 243 l 422 243 l 370 0 l 184 0 z "},"2":{"ha":554,"x_min":46,"x_max":682,"o":"m 46 0 l 111 304 q 201 475 132 404 q 272 529 236 511 q 347 547 309 547 l 416 547 q 445 554 431 547 q 471 574 459 562 q 492 602 483 586 q 505 637 501 618 q 507 673 509 656 q 498 702 505 690 q 481 722 492 715 q 456 729 470 729 l 201 729 l 253 972 l 529 972 q 646 900 605 972 q 664 729 682 830 l 650 668 q 558 497 629 568 q 488 444 525 462 q 412 425 451 425 l 297 425 q 269 418 283 425 q 243 398 255 410 q 221 370 231 386 q 208 335 212 353 l 191 243 l 559 243 l 509 0 l 46 0 z "},"3":{"ha":554,"x_min":46,"x_max":682,"o":"m 559 243 q 469 72 539 144 q 323 0 399 0 l 46 0 l 98 243 l 353 243 q 381 250 367 243 q 407 270 395 258 q 428 299 419 283 q 440 335 437 316 q 443 370 444 353 q 434 398 441 386 q 415 418 427 410 q 390 425 404 425 l 228 425 l 256 547 l 416 547 q 445 554 431 547 q 471 574 459 562 q 492 602 483 586 q 505 637 501 618 q 507 673 509 656 q 498 702 505 690 q 481 722 492 715 q 456 729 470 729 l 201 729 l 253 972 l 529 972 q 646 900 605 972 q 664 729 682 830 l 660 717 q 635 642 651 678 q 596 575 620 606 q 543 520 570 543 q 484 486 515 498 q 529 450 511 473 q 558 394 548 426 q 568 323 568 362 q 559 243 568 285 z "},"4":{"ha":554,"x_min":82,"x_max":714,"o":"m 415 0 l 452 170 l 82 170 l 201 729 l 294 729 l 227 412 l 503 412 l 623 972 l 714 972 l 509 0 l 415 0 z "},"5":{"ha":554,"x_min":46,"x_max":668,"o":"m 559 243 q 469 72 539 144 q 323 0 399 0 l 46 0 l 98 243 l 353 243 q 381 250 367 243 q 407 270 395 258 q 428 299 419 283 q 440 335 437 316 q 443 370 444 353 q 434 398 441 386 q 415 418 427 410 q 390 425 404 425 l 136 425 l 253 972 l 668 972 l 616 729 l 294 729 l 256 547 l 440 547 q 554 475 515 547 q 579 397 574 439 q 572 304 584 355 l 559 243 z "},"6":{"ha":554,"x_min":76,"x_max":668,"o":"m 486 335 q 488 370 490 353 q 479 398 486 386 q 461 418 472 410 q 436 425 450 425 l 297 425 q 269 418 283 425 q 243 398 255 410 q 221 370 231 386 q 208 335 212 353 q 207 299 205 316 q 217 270 210 283 q 235 250 224 258 q 260 243 245 243 l 399 243 q 427 250 413 243 q 453 270 441 258 q 473 299 465 283 q 486 335 482 316 m 559 243 q 527 149 549 192 q 469 71 505 106 q 398 18 434 35 q 323 0 362 0 l 231 0 q 117 72 152 0 q 98 243 76 144 l 201 729 q 234 823 212 781 q 292 901 256 866 q 362 955 326 937 q 437 972 397 972 l 668 972 l 616 729 l 386 729 q 347 720 366 729 q 312 694 328 710 q 284 655 296 677 q 267 607 273 633 l 235 450 q 248 488 239 470 q 271 518 258 505 q 299 539 283 532 q 329 547 314 547 l 440 547 q 554 475 515 547 q 579 397 574 439 q 572 304 584 355 l 559 243 z "},"7":{"ha":554,"x_min":46,"x_max":714,"o":"m 175 0 l 46 0 l 534 729 l 201 729 l 253 972 l 714 972 l 664 729 l 175 0 z "},"8":{"ha":554,"x_min":76,"x_max":673,"o":"m 486 335 q 488 370 490 353 q 479 398 486 386 q 461 418 472 410 q 436 425 450 425 l 297 425 q 269 418 283 425 q 243 398 255 410 q 221 370 231 386 q 208 335 212 353 q 207 299 205 316 q 217 270 210 283 q 235 250 224 258 q 260 243 245 243 l 399 243 q 427 250 413 243 q 453 270 441 258 q 473 299 465 283 q 486 335 482 316 m 551 637 q 553 673 555 656 q 544 702 551 690 q 526 722 537 715 q 501 729 515 729 l 364 729 q 335 722 349 729 q 309 702 321 715 q 288 673 296 690 q 275 637 279 656 q 273 602 271 618 q 281 574 275 586 q 299 554 288 562 q 325 547 311 547 l 463 547 q 491 554 477 547 q 517 574 505 562 q 538 602 529 586 q 551 637 547 618 m 559 243 q 527 149 549 192 q 469 71 505 106 q 398 18 434 35 q 323 0 362 0 l 231 0 q 114 71 154 0 q 98 243 76 142 l 106 279 q 153 399 120 347 q 237 486 186 450 q 190 573 201 522 q 193 693 178 625 l 201 729 q 234 823 212 781 q 292 901 256 866 q 362 955 326 937 q 437 972 397 972 l 529 972 q 597 955 569 972 q 646 901 626 937 q 669 823 665 866 q 664 729 673 781 l 656 693 q 607 573 641 625 q 524 486 574 522 q 571 399 559 450 q 568 279 583 347 l 559 243 z "},"9":{"ha":554,"x_min":92,"x_max":682,"o":"m 551 637 q 553 673 555 656 q 544 702 551 690 q 526 722 537 715 q 501 729 515 729 l 364 729 q 335 722 349 729 q 309 702 321 715 q 288 673 296 690 q 275 637 279 656 q 273 602 271 618 q 281 574 275 586 q 299 554 288 562 q 325 547 311 547 l 463 547 q 491 554 477 547 q 517 574 505 562 q 538 602 529 586 q 551 637 547 618 m 559 243 q 527 149 549 192 q 469 71 505 106 q 398 18 434 35 q 323 0 362 0 l 92 0 l 144 243 l 375 243 q 414 252 395 243 q 449 278 433 262 q 476 316 465 294 q 493 364 488 338 l 526 522 q 512 485 522 503 q 490 454 503 467 q 461 433 477 441 q 432 425 446 425 l 321 425 q 254 444 282 425 q 207 497 226 462 q 189 668 165 568 l 201 729 q 234 823 212 781 q 292 901 256 866 q 362 955 326 937 q 437 972 397 972 l 529 972 q 646 900 605 972 q 664 729 682 830 l 559 243 z "}," ":{"ha":415,"x_min":0,"x_max":0,"o":""},"!":{"ha":221,"x_min":46,"x_max":382,"o":"m 46 0 l 82 170 l 211 170 l 175 0 l 46 0 m 200 292 l 144 292 l 253 972 l 382 972 l 200 292 z "},"\"":{"ha":425,"x_min":229,"x_max":599,"o":"m 286 693 l 229 693 l 267 1034 l 395 1034 l 286 693 m 489 693 l 433 693 l 469 1034 l 599 1034 l 489 693 z "},"#":{"ha":572,"x_min":150,"x_max":703,"o":"m 393 729 l 350 583 l 461 583 l 503 729 l 393 729 m 507 486 l 468 340 l 393 340 l 433 486 l 322 486 l 283 340 l 208 340 l 249 486 l 150 486 l 170 583 l 277 583 l 318 729 l 201 729 l 222 827 l 345 827 l 383 972 l 458 972 l 418 827 l 529 827 l 568 972 l 643 972 l 603 827 l 703 827 l 682 729 l 578 729 l 534 583 l 650 583 l 629 486 l 507 486 z "},"$":{"ha":554,"x_min":72,"x_max":714,"o":"m 586 364 q 494 193 564 263 q 349 121 427 121 l 323 0 l 231 0 l 257 121 l 72 121 l 123 364 l 401 364 q 420 369 411 364 q 437 383 429 374 q 451 402 446 391 q 460 425 457 413 q 455 468 465 450 q 427 486 446 486 l 335 486 q 220 558 256 486 q 201 729 180 629 q 293 900 222 829 q 437 972 361 972 l 463 1093 l 555 1093 l 529 972 l 714 972 l 664 729 l 386 729 q 350 711 367 729 q 326 668 333 693 q 325 645 323 656 q 331 626 326 634 q 343 612 336 617 q 359 607 350 607 l 452 607 q 568 536 528 607 q 586 364 605 465 z "},"%":{"ha":987,"x_min":148,"x_max":1054,"o":"m 471 699 q 473 734 475 718 q 465 763 471 751 q 448 783 458 776 q 422 790 437 790 l 353 790 q 325 783 338 790 q 298 763 311 776 q 277 734 286 751 q 264 699 268 718 l 244 607 q 243 572 241 589 q 252 544 245 556 q 269 524 258 531 q 294 517 280 517 l 364 517 q 393 524 378 517 q 419 543 407 530 q 439 571 431 555 q 452 607 448 587 l 471 699 m 950 364 q 951 399 954 382 q 943 428 949 416 q 925 448 937 441 q 900 456 914 456 l 831 456 q 802 448 817 456 q 776 428 788 441 q 755 399 764 416 q 743 364 747 382 l 724 273 q 721 238 720 255 q 730 209 723 222 q 747 189 736 197 q 772 182 758 182 l 842 182 q 870 189 856 182 q 897 208 884 196 q 918 237 909 220 q 930 273 926 254 l 950 364 m 501 517 q 477 446 493 478 q 435 386 460 414 q 325 335 384 335 l 256 335 q 170 387 199 335 q 151 446 155 414 q 155 517 148 479 l 214 790 q 239 860 222 828 q 282 918 256 892 q 335 959 307 945 q 392 972 363 972 l 461 972 q 549 918 519 972 q 566 860 564 892 q 559 790 568 828 l 501 517 m 449 0 l 656 972 l 747 972 l 541 0 l 449 0 m 981 182 q 913 53 964 104 q 803 0 863 0 l 733 0 q 646 53 675 0 q 630 112 633 80 q 635 182 627 144 l 693 456 q 718 525 701 493 q 760 585 734 557 q 813 624 785 610 q 869 637 841 637 l 939 637 q 989 624 968 637 q 1025 585 1010 610 q 1039 456 1054 532 l 981 182 z "},"&":{"ha":554,"x_min":76,"x_max":714,"o":"m 450 425 l 345 425 q 316 418 330 425 q 290 398 302 410 q 269 370 277 386 q 256 335 260 353 q 254 299 252 316 q 262 270 256 283 q 280 250 269 258 q 306 243 292 243 l 412 243 l 450 425 m 231 0 q 117 72 152 0 q 98 243 76 144 q 123 323 106 285 q 163 394 140 362 q 215 450 186 426 q 277 486 244 473 q 231 523 250 499 q 203 578 212 547 q 193 649 193 610 q 201 729 193 687 q 293 900 222 829 q 437 972 361 972 l 714 972 l 664 729 l 410 729 q 381 722 395 729 q 355 702 367 715 q 333 673 342 690 q 321 637 324 656 q 319 602 317 618 q 328 574 321 586 q 346 554 335 562 q 371 547 357 547 l 625 547 l 597 425 l 542 425 l 504 243 l 559 243 l 509 0 l 231 0 z "},"'":{"ha":221,"x_min":229,"x_max":395,"o":"m 286 693 l 229 693 l 267 1034 l 395 1034 l 286 693 z "},"(":{"ha":323,"x_min":52,"x_max":463,"o":"m 205 -122 q 138 -104 167 -122 q 90 -50 109 -85 q 72 121 52 20 l 228 850 q 318 1022 246 951 q 463 1093 387 1093 l 412 850 q 374 840 393 850 q 339 814 355 831 q 311 776 323 798 q 294 729 299 754 l 191 243 q 188 196 185 218 q 199 157 190 174 q 223 131 208 140 q 257 121 237 121 l 205 -122 z "},")":{"ha":323,"x_min":66,"x_max":468,"o":"m 302 121 q 211 -50 282 21 q 141 -104 178 -85 q 66 -122 105 -122 l 118 121 q 156 131 137 121 q 191 157 175 140 q 220 196 208 174 q 237 243 232 218 l 340 729 q 343 776 345 754 q 331 814 340 798 q 307 840 322 831 q 273 850 292 850 l 325 1093 q 440 1022 400 1093 q 464 944 459 987 q 458 850 468 901 l 302 121 z "},"*":{"ha":450,"x_min":184,"x_max":575,"o":"m 486 566 l 399 646 l 364 486 l 290 486 l 325 646 l 203 566 l 184 650 l 306 729 l 218 808 l 272 893 l 359 812 l 393 972 l 468 972 l 433 812 l 555 893 l 575 808 l 453 729 l 542 650 l 486 566 z "},"+":{"ha":461,"x_min":126,"x_max":517,"o":"m 347 376 l 306 182 l 233 182 l 275 376 l 126 376 l 147 473 l 296 473 l 336 668 l 410 668 l 368 473 l 517 473 l 496 376 l 347 376 z "},",":{"ha":221,"x_min":46,"x_max":211,"o":"m 102 -171 l 46 -171 l 82 170 l 211 170 l 102 -171 z "},"-":{"ha":461,"x_min":126,"x_max":517,"o":"m 126 376 l 147 473 l 517 473 l 496 376 l 126 376 z "},"­":{"ha":461,"x_min":126,"x_max":517,"o":"m 126 376 l 147 473 l 517 473 l 496 376 l 126 376 z "},".":{"ha":221,"x_min":46,"x_max":211,"o":"m 46 0 l 82 170 l 211 170 l 175 0 l 46 0 z "},"/":{"ha":450,"x_min":9,"x_max":646,"o":"m 87 -106 l 9 -64 l 568 1078 l 646 1036 l 87 -106 z "},":":{"ha":221,"x_min":46,"x_max":315,"o":"m 46 0 l 82 170 l 211 170 l 175 0 l 46 0 m 150 486 l 186 656 l 315 656 l 278 486 l 150 486 z "},";":{"ha":221,"x_min":46,"x_max":315,"o":"m 102 -171 l 46 -171 l 82 170 l 211 170 l 102 -171 m 150 486 l 186 656 l 315 656 l 278 486 l 150 486 z "},";":{"ha":221,"x_min":46,"x_max":315,"o":"m 102 -171 l 46 -171 l 82 170 l 211 170 l 102 -171 m 150 486 l 186 656 l 315 656 l 278 486 l 150 486 z "},"<":{"ha":441,"x_min":126,"x_max":536,"o":"m 380 111 l 126 376 l 147 473 l 513 739 l 536 657 l 215 425 l 437 193 l 380 111 z "},"=":{"ha":461,"x_min":103,"x_max":539,"o":"m 103 267 l 123 364 l 493 364 l 472 267 l 103 267 m 150 486 l 170 583 l 539 583 l 519 486 l 150 486 z "},">":{"ha":441,"x_min":87,"x_max":497,"o":"m 111 111 l 87 193 l 407 425 l 186 657 l 243 739 l 497 473 l 476 376 l 111 111 z "},"?":{"ha":498,"x_min":92,"x_max":627,"o":"m 92 0 l 129 170 l 257 170 l 221 0 l 92 0 m 607 729 q 574 636 596 679 q 518 558 551 594 q 371 486 447 486 l 298 486 l 248 292 l 191 292 l 240 607 l 396 607 q 416 612 406 607 q 433 626 425 617 q 447 645 441 634 q 456 668 453 656 q 452 711 461 693 q 422 729 442 729 l 201 729 l 253 972 l 473 972 q 590 900 549 972 q 607 729 627 829 z "},"@":{"ha":831,"x_min":35,"x_max":951,"o":"m 602 374 q 597 433 610 410 q 557 456 585 456 l 488 456 q 459 448 474 456 q 432 428 445 441 q 408 399 418 416 q 393 364 398 382 q 374 295 380 320 q 367 267 368 271 q 370 206 358 230 q 411 182 382 182 l 481 182 q 509 189 495 182 q 537 209 524 197 q 560 238 550 222 q 576 273 570 255 q 593 343 587 319 q 602 374 600 368 m 838 243 q 804 149 826 192 q 746 71 781 106 q 676 18 711 35 q 600 0 640 0 l 498 0 l 515 61 q 477 14 505 30 q 403 -1 450 -1 l 380 -1 q 368 0 374 0 q 359 0 363 0 q 279 47 306 0 q 263 102 266 73 q 268 167 260 131 q 272 182 268 170 l 349 456 q 379 525 360 493 q 425 585 397 557 q 539 637 480 637 l 608 637 q 688 590 663 637 q 705 537 702 567 q 700 472 707 508 q 697 466 699 471 q 694 456 696 462 l 591 85 l 646 85 q 684 94 665 85 q 719 120 703 104 q 747 159 735 136 q 764 207 758 181 l 884 765 q 887 812 889 790 q 875 851 884 835 q 851 878 866 868 q 817 888 836 888 l 392 888 q 354 878 372 888 q 319 851 335 868 q 291 812 302 835 q 273 765 279 790 l 103 -36 q 100 -83 98 -61 q 112 -122 102 -106 q 135 -149 121 -139 q 170 -158 150 -158 l 659 -158 l 640 -243 l 179 -243 q 62 -171 103 -243 q 39 -93 43 -135 q 46 0 35 -50 l 201 729 q 292 900 222 830 q 362 954 326 936 q 437 972 399 972 l 807 972 q 922 900 884 972 q 946 822 941 864 q 940 729 951 780 l 838 243 z "},"A":{"ha":554,"x_min":46,"x_max":673,"o":"m 545 607 q 547 655 549 633 q 537 694 545 677 q 514 720 528 710 q 479 729 499 729 l 386 729 q 348 720 367 729 q 313 693 329 710 q 285 654 297 677 q 267 607 273 632 l 216 364 l 493 364 l 545 607 m 415 0 l 468 243 l 191 243 l 139 0 l 46 0 l 201 729 q 293 900 222 829 q 437 972 361 972 l 529 972 q 597 955 569 972 q 646 901 626 937 q 669 823 665 866 q 664 729 673 781 l 509 0 l 415 0 z "},"B":{"ha":554,"x_min":46,"x_max":682,"o":"m 440 335 q 443 370 444 353 q 434 398 441 386 q 415 418 427 410 q 390 425 404 425 l 228 425 l 191 243 l 353 243 q 381 250 367 243 q 407 270 395 258 q 428 299 419 283 q 440 335 437 316 m 505 637 q 507 673 509 656 q 498 702 505 690 q 481 722 492 715 q 456 729 470 729 l 294 729 l 256 547 l 416 547 q 445 554 431 547 q 471 574 459 562 q 492 602 483 586 q 505 637 501 618 m 559 243 q 469 72 539 144 q 323 0 399 0 l 46 0 l 253 972 l 529 972 q 646 900 605 972 q 664 729 682 830 l 660 717 q 635 642 651 678 q 596 575 620 606 q 543 520 570 543 q 484 486 515 498 q 529 450 511 473 q 558 394 548 426 q 568 323 568 362 q 559 243 568 285 z "},"C":{"ha":554,"x_min":76,"x_max":714,"o":"m 231 0 q 117 72 152 0 q 98 243 76 144 l 201 729 q 293 900 222 829 q 437 972 361 972 l 714 972 l 664 729 l 386 729 q 348 720 367 729 q 313 693 329 710 q 285 654 297 677 q 267 607 273 632 l 216 364 q 213 317 211 339 q 225 278 216 295 q 249 252 234 262 q 283 243 264 243 l 559 243 l 509 0 l 231 0 z "},"D":{"ha":554,"x_min":46,"x_max":682,"o":"m 545 607 q 547 654 549 632 q 536 693 545 677 q 512 720 527 710 q 479 729 498 729 l 294 729 l 191 243 l 375 243 q 414 252 395 243 q 449 278 433 262 q 476 316 465 294 q 493 364 488 338 l 545 607 m 559 243 q 527 149 549 192 q 469 71 505 106 q 398 18 434 35 q 323 0 362 0 l 46 0 l 253 972 l 529 972 q 646 900 605 972 q 664 729 682 830 l 559 243 z "},"E":{"ha":461,"x_min":76,"x_max":623,"o":"m 231 0 q 114 71 154 0 q 98 243 76 142 l 253 972 l 623 972 l 571 729 l 294 729 l 256 547 l 440 547 l 412 425 l 228 425 l 216 364 q 213 316 211 338 q 224 278 215 294 q 248 252 233 262 q 283 243 263 243 l 468 243 l 415 0 l 231 0 z "},"F":{"ha":439,"x_min":46,"x_max":623,"o":"m 386 729 q 347 720 366 729 q 312 694 328 710 q 284 655 296 677 q 267 607 273 633 l 256 547 l 440 547 l 412 425 l 228 425 l 139 0 l 46 0 l 201 729 q 234 823 212 781 q 292 901 256 866 q 362 955 326 937 q 437 972 397 972 l 623 972 l 571 729 l 386 729 z "},"G":{"ha":554,"x_min":76,"x_max":714,"o":"m 386 729 q 348 720 367 729 q 313 693 329 710 q 285 654 297 677 q 267 607 273 632 l 216 364 q 213 317 211 339 q 225 278 216 295 q 249 252 234 262 q 283 243 264 243 l 458 243 l 496 425 l 367 425 l 393 547 l 615 547 l 498 0 l 231 0 q 117 72 152 0 q 98 243 76 144 l 201 729 q 293 900 222 829 q 437 972 361 972 l 714 972 l 664 729 l 386 729 z "},"H":{"ha":554,"x_min":46,"x_max":714,"o":"m 415 0 l 493 364 l 216 364 l 139 0 l 46 0 l 253 972 l 345 972 l 267 607 l 545 607 l 623 972 l 714 972 l 509 0 l 415 0 z "},"I":{"ha":277,"x_min":46,"x_max":437,"o":"m 46 0 l 98 243 l 144 243 l 248 729 l 201 729 l 253 972 l 437 972 l 386 729 l 340 729 l 237 243 l 283 243 l 231 0 l 46 0 z "},"J":{"ha":370,"x_min":46,"x_max":529,"o":"m 375 243 q 342 149 364 192 q 285 71 320 106 q 213 18 249 35 q 139 0 178 0 l 46 0 l 98 243 l 191 243 q 230 252 211 243 q 264 278 248 262 q 292 316 280 294 q 309 364 303 338 l 386 729 l 201 729 l 253 972 l 529 972 l 375 243 z "},"K":{"ha":554,"x_min":46,"x_max":714,"o":"m 415 0 l 468 243 q 471 291 473 269 q 460 330 469 313 q 436 355 451 346 q 401 364 421 364 l 216 364 l 139 0 l 46 0 l 253 972 l 345 972 l 267 607 l 452 607 q 491 616 472 607 q 526 642 510 626 q 553 681 541 659 q 571 729 565 703 l 623 972 l 714 972 l 657 704 q 636 636 650 669 q 603 575 622 604 q 559 524 583 547 q 509 486 536 501 q 543 448 529 471 q 565 397 557 425 q 572 335 572 368 q 566 267 572 302 l 509 0 l 415 0 z "},"L":{"ha":461,"x_min":76,"x_max":468,"o":"m 231 0 q 114 71 154 0 q 98 243 76 142 l 253 972 l 345 972 l 216 364 q 213 316 211 338 q 224 278 215 294 q 248 252 233 262 q 283 243 263 243 l 468 243 l 415 0 l 231 0 z "},"M":{"ha":924,"x_min":46,"x_max":1052,"o":"m 785 0 l 914 607 q 917 654 919 632 q 905 693 914 677 q 882 720 897 710 q 848 729 867 729 l 755 729 q 717 720 736 729 q 682 694 698 710 q 654 655 666 677 q 636 607 642 633 l 509 0 l 415 0 l 545 607 q 547 655 549 633 q 537 694 545 677 q 514 720 528 710 q 479 729 499 729 l 386 729 q 348 720 367 729 q 313 693 329 710 q 285 654 297 677 q 267 607 273 632 l 139 0 l 46 0 l 201 729 q 293 900 222 829 q 437 972 361 972 l 493 972 q 549 961 524 972 q 592 928 574 949 q 621 876 610 906 q 633 807 632 845 q 675 876 651 845 q 726 928 699 906 q 783 961 753 949 q 843 972 812 972 l 899 972 q 1015 900 975 972 q 1034 729 1052 830 l 878 0 l 785 0 z "},"N":{"ha":554,"x_min":46,"x_max":673,"o":"m 415 0 l 545 607 q 547 655 549 633 q 537 694 545 677 q 514 720 528 710 q 479 729 499 729 l 386 729 q 348 720 367 729 q 313 693 329 710 q 285 654 297 677 q 267 607 273 632 l 139 0 l 46 0 l 201 729 q 292 900 222 830 q 362 954 326 936 q 437 972 399 972 l 529 972 q 597 955 569 972 q 646 901 626 937 q 669 823 665 866 q 664 729 673 781 l 509 0 l 415 0 z "},"O":{"ha":554,"x_min":76,"x_max":682,"o":"m 545 607 q 547 654 549 632 q 536 693 545 677 q 512 720 527 710 q 479 729 498 729 l 386 729 q 348 720 367 729 q 313 693 329 710 q 285 654 297 677 q 267 607 273 632 l 216 364 q 213 317 211 339 q 225 278 216 295 q 249 252 234 262 q 283 243 264 243 l 375 243 q 414 252 395 243 q 449 278 433 262 q 476 316 465 294 q 493 364 488 338 l 545 607 m 559 243 q 527 149 549 192 q 469 71 505 106 q 398 18 434 35 q 323 0 362 0 l 231 0 q 114 71 154 0 q 98 243 76 142 l 201 729 q 292 900 222 830 q 362 954 326 936 q 437 972 399 972 l 529 972 q 646 900 605 972 q 664 729 682 830 l 559 243 z "},"P":{"ha":554,"x_min":46,"x_max":682,"o":"m 505 637 q 507 673 509 656 q 498 702 505 690 q 481 722 492 715 q 456 729 470 729 l 294 729 l 256 547 l 416 547 q 445 554 431 547 q 471 574 459 562 q 492 602 483 586 q 505 637 501 618 m 650 668 q 558 497 629 568 q 488 444 525 462 q 412 425 451 425 l 228 425 l 139 0 l 46 0 l 253 972 l 529 972 q 646 900 605 972 q 664 729 682 830 l 650 668 z "},"Q":{"ha":554,"x_min":87,"x_max":682,"o":"m 545 607 q 547 654 549 632 q 536 693 545 677 q 512 720 527 710 q 479 729 498 729 l 386 729 q 348 720 367 729 q 313 693 329 710 q 285 654 297 677 q 267 607 273 632 l 216 364 q 213 317 211 339 q 225 278 216 295 q 249 252 234 262 q 283 243 264 243 l 375 243 q 414 252 395 243 q 449 278 433 262 q 476 316 465 294 q 493 364 488 338 l 545 607 m 338 -366 q 222 -294 260 -366 q 205 -122 183 -224 l 231 0 q 115 71 153 0 q 92 150 96 106 q 98 243 87 193 l 201 729 q 293 900 222 829 q 437 972 361 972 l 529 972 q 646 900 605 972 q 664 729 682 830 l 559 243 q 527 149 549 192 q 469 71 505 106 q 398 18 434 35 q 323 0 362 0 q 320 -48 318 -26 q 331 -87 322 -71 q 355 -113 340 -103 q 390 -122 370 -122 l 482 -122 l 431 -366 l 338 -366 z "},"R":{"ha":554,"x_min":46,"x_max":682,"o":"m 505 637 q 507 673 509 656 q 498 702 505 690 q 481 722 492 715 q 456 729 470 729 l 294 729 l 256 547 l 416 547 q 445 554 431 547 q 471 574 459 562 q 492 602 483 586 q 505 637 501 618 m 415 0 l 471 256 q 464 374 486 323 q 390 425 441 425 l 228 425 l 139 0 l 46 0 l 253 972 l 529 972 q 646 900 605 972 q 664 729 682 830 q 637 649 654 687 q 597 578 621 610 q 545 523 574 547 q 484 486 516 499 q 531 451 511 473 q 560 400 550 429 q 570 334 570 370 q 562 256 571 297 l 509 0 l 415 0 z "},"S":{"ha":554,"x_min":46,"x_max":714,"o":"m 559 243 q 469 72 539 144 q 323 0 399 0 l 46 0 l 98 243 l 353 243 q 381 250 367 243 q 407 270 395 258 q 428 299 419 283 q 440 335 437 316 q 443 370 444 353 q 434 398 441 386 q 415 418 427 410 q 390 425 404 425 l 321 425 q 254 444 282 425 q 207 497 226 462 q 189 668 165 568 l 201 729 q 293 900 222 829 q 437 972 361 972 l 714 972 l 664 729 l 410 729 q 381 722 395 729 q 355 702 367 715 q 333 673 342 690 q 321 637 324 656 q 319 602 317 618 q 328 574 321 586 q 346 554 335 562 q 371 547 357 547 l 440 547 q 554 475 515 547 q 579 397 574 439 q 572 304 584 355 l 559 243 z "},"T":{"ha":509,"x_min":179,"x_max":692,"o":"m 456 729 l 300 0 l 208 0 l 364 729 l 179 729 l 229 972 l 692 972 l 640 729 l 456 729 z "},"U":{"ha":554,"x_min":76,"x_max":714,"o":"m 559 243 q 527 149 549 192 q 469 71 505 106 q 398 18 434 35 q 323 0 362 0 l 231 0 q 114 71 154 0 q 98 243 76 142 l 253 972 l 345 972 l 216 364 q 213 317 211 339 q 225 278 216 295 q 249 252 234 262 q 283 243 264 243 l 375 243 q 414 252 395 243 q 449 278 433 262 q 476 316 465 294 q 493 364 488 338 l 623 972 l 714 972 l 559 243 z "},"V":{"ha":554,"x_min":46,"x_max":714,"o":"m 559 243 q 527 149 549 192 q 469 71 505 106 q 398 18 434 35 q 323 0 362 0 l 46 0 l 253 972 l 345 972 l 191 243 l 375 243 q 414 252 395 243 q 449 278 433 262 q 476 316 465 294 q 493 364 488 338 l 623 972 l 714 972 l 559 243 z "},"W":{"ha":924,"x_min":76,"x_max":1083,"o":"m 929 243 q 839 72 909 144 q 693 0 768 0 l 636 0 q 581 12 606 0 q 538 44 556 23 q 509 97 519 66 q 497 165 498 127 q 456 97 479 127 q 405 44 432 66 q 347 12 377 23 q 286 0 317 0 l 231 0 q 117 72 152 0 q 98 243 76 144 l 253 972 l 345 972 l 216 364 q 213 317 211 339 q 225 278 216 295 q 249 252 234 262 q 283 243 264 243 l 375 243 q 414 252 395 243 q 449 278 433 262 q 476 316 465 294 q 493 364 488 338 l 623 972 l 714 972 l 586 364 q 583 316 581 338 q 593 278 585 294 q 617 252 602 262 q 653 243 633 243 l 745 243 q 783 252 764 243 q 818 278 802 262 q 845 317 833 295 q 863 364 857 339 l 991 972 l 1083 972 l 929 243 z "},"X":{"ha":554,"x_min":46,"x_max":714,"o":"m 452 0 q 354 46 394 0 q 325 100 334 70 q 313 168 315 130 q 273 100 297 130 q 220 46 249 70 q 102 0 160 0 l 46 0 l 98 243 l 191 243 q 229 252 210 243 q 263 278 248 262 q 291 317 279 295 q 309 364 303 339 l 359 607 q 362 654 365 632 q 351 693 360 677 q 328 720 342 710 q 294 729 313 729 l 201 729 l 253 972 l 309 972 q 407 925 368 972 q 437 872 426 902 q 449 804 448 842 q 488 872 465 842 q 541 925 510 902 q 659 972 598 972 l 714 972 l 664 729 l 571 729 q 533 720 551 729 q 498 693 514 710 q 469 654 481 677 q 452 607 457 632 l 401 364 q 398 317 395 339 q 409 278 400 295 q 433 252 418 262 q 468 243 448 243 l 559 243 l 509 0 l 452 0 z "},"Y":{"ha":554,"x_min":149,"x_max":714,"o":"m 623 534 q 589 441 611 484 q 530 363 566 398 q 460 309 496 327 q 385 292 425 292 l 323 0 l 231 0 l 293 292 q 178 363 215 292 q 154 441 158 398 q 160 534 149 484 l 253 972 l 345 972 l 278 656 q 275 609 273 631 q 287 570 278 587 q 311 544 296 553 q 345 534 326 534 l 437 534 q 476 544 457 534 q 511 570 495 553 q 538 608 526 586 q 555 656 550 630 l 623 972 l 714 972 l 623 534 z "},"Z":{"ha":554,"x_min":46,"x_max":714,"o":"m 46 0 l 98 243 l 525 729 l 201 729 l 253 972 l 714 972 l 664 729 l 237 243 l 559 243 l 509 0 l 46 0 z "},"[":{"ha":323,"x_min":21,"x_max":463,"o":"m 21 -122 l 278 1093 l 463 1093 l 412 850 l 319 850 l 164 121 l 257 121 l 205 -122 l 21 -122 z "},"\\":{"ha":450,"x_min":243,"x_max":412,"o":"m 317 -106 l 243 1036 l 339 1078 l 412 -64 l 317 -106 z "},"]":{"ha":323,"x_min":66,"x_max":510,"o":"m 66 -122 l 118 121 l 210 121 l 366 850 l 273 850 l 325 1093 l 510 1093 l 252 -122 l 66 -122 z "},"^":{"ha":468,"x_min":158,"x_max":533,"o":"m 457 489 l 412 842 l 216 489 l 158 529 l 403 972 l 476 972 l 533 529 l 457 489 z "},"_":{"ha":437,"x_min":0,"x_max":437,"o":"m 0 0 l 0 121 l 437 121 l 437 0 l 0 0 z "},"`":{"ha":221,"x_min":253,"x_max":345,"o":"m 290 802 l 253 972 l 326 972 l 345 802 l 290 802 z "},"a":{"ha":554,"x_min":76,"x_max":659,"o":"m 519 486 q 522 534 524 512 q 511 572 519 556 q 487 598 502 589 q 452 607 472 607 l 359 607 q 322 597 340 607 q 287 572 303 588 q 259 533 271 555 q 241 486 248 511 l 216 364 q 213 317 211 339 q 225 278 216 295 q 249 252 234 262 q 283 243 264 243 l 375 243 q 413 252 394 243 q 448 278 432 262 q 476 317 465 295 q 493 364 488 339 l 519 486 m 415 0 l 432 82 q 385 20 424 42 q 355 4 370 9 q 323 0 339 0 l 231 0 q 117 72 152 0 q 98 243 76 144 l 175 607 q 267 779 196 708 q 412 850 335 850 l 504 850 q 572 833 544 850 q 619 781 601 817 q 636 607 659 708 l 509 0 l 415 0 z "},"b":{"ha":554,"x_min":76,"x_max":659,"o":"m 519 486 q 522 533 524 511 q 510 572 519 555 q 486 597 500 588 q 452 607 471 607 l 359 607 q 322 597 340 607 q 287 572 303 588 q 259 533 271 555 q 241 486 248 511 l 216 364 q 213 316 211 338 q 224 278 215 294 q 248 252 233 262 q 283 243 263 243 l 375 243 q 413 252 394 243 q 448 278 432 262 q 476 317 465 295 q 493 364 488 339 l 519 486 m 559 243 q 469 72 539 144 q 323 0 399 0 l 231 0 q 114 71 154 0 q 98 243 76 142 l 267 1034 l 358 1034 l 302 770 q 349 831 312 806 q 380 845 364 841 q 412 850 397 850 l 504 850 q 571 832 543 850 q 618 779 600 815 q 636 607 659 708 l 559 243 z "},"c":{"ha":554,"x_min":76,"x_max":689,"o":"m 231 0 q 117 72 152 0 q 98 243 76 144 l 175 607 q 267 779 196 708 q 412 850 335 850 l 689 850 l 636 607 l 359 607 q 322 597 340 607 q 287 572 303 588 q 259 533 271 555 q 241 486 248 511 l 216 364 q 213 317 211 339 q 225 278 216 295 q 249 252 234 262 q 283 243 264 243 l 559 243 l 509 0 l 231 0 z "},"d":{"ha":554,"x_min":76,"x_max":728,"o":"m 519 486 q 522 533 524 511 q 510 572 519 555 q 486 597 500 588 q 452 607 471 607 l 359 607 q 322 597 340 607 q 287 572 303 588 q 259 533 271 555 q 241 486 248 511 l 216 364 q 213 317 211 339 q 225 278 216 295 q 249 252 234 262 q 283 243 264 243 l 375 243 q 414 252 395 243 q 449 278 433 262 q 476 316 465 294 q 493 364 488 338 l 519 486 m 559 243 q 527 149 549 192 q 469 71 505 106 q 398 18 434 35 q 323 0 362 0 l 231 0 q 117 72 152 0 q 98 243 76 144 l 175 607 q 267 779 196 708 q 412 850 335 850 l 504 850 q 534 845 519 850 q 558 831 548 841 q 578 804 573 819 q 579 770 583 788 l 636 1034 l 728 1034 l 559 243 z "},"e":{"ha":554,"x_min":76,"x_max":689,"o":"m 231 0 q 117 72 152 0 q 98 243 76 144 l 175 607 q 267 779 196 708 q 412 850 335 850 l 689 850 l 636 607 l 359 607 q 322 597 340 607 q 287 572 303 588 q 259 533 271 555 q 241 486 248 511 l 519 486 l 493 364 l 216 364 q 213 317 211 339 q 225 278 216 295 q 249 252 234 262 q 283 243 264 243 l 559 243 l 509 0 l 231 0 z "},"f":{"ha":439,"x_min":46,"x_max":636,"o":"m 399 790 q 359 781 378 790 q 325 755 340 771 q 298 716 309 739 q 281 668 286 694 l 256 547 l 440 547 l 412 425 l 228 425 l 139 0 l 46 0 l 214 790 q 247 884 224 842 q 304 962 269 927 q 376 1016 340 998 q 452 1034 412 1034 l 636 1034 l 583 790 l 399 790 z "},"g":{"ha":554,"x_min":76,"x_max":659,"o":"m 519 486 q 522 533 524 511 q 510 572 519 555 q 486 597 500 588 q 452 607 471 607 l 359 607 q 322 597 340 607 q 287 572 303 588 q 259 533 271 555 q 241 486 248 511 l 216 364 q 213 317 211 339 q 225 278 216 295 q 249 252 234 262 q 283 243 264 243 l 375 243 q 414 252 395 243 q 449 278 433 262 q 476 316 465 294 q 493 364 488 338 l 519 486 m 482 -122 q 393 -294 460 -225 q 320 -348 357 -330 q 245 -366 284 -366 l 153 -366 l 205 -122 l 297 -122 q 336 -113 317 -122 q 371 -87 355 -103 q 398 -48 387 -71 q 415 0 410 -26 l 432 82 q 385 20 424 42 q 355 4 370 9 q 323 0 339 0 l 231 0 q 117 72 152 0 q 98 243 76 144 l 175 607 q 267 779 196 708 q 412 850 335 850 l 504 850 q 572 833 544 850 q 619 781 601 817 q 636 607 659 708 l 482 -122 z "},"h":{"ha":554,"x_min":46,"x_max":659,"o":"m 415 0 l 519 486 q 522 533 524 511 q 510 572 519 555 q 486 597 500 588 q 452 607 471 607 l 359 607 q 322 597 340 607 q 287 572 303 588 q 259 533 271 555 q 241 486 248 511 l 139 0 l 46 0 l 267 1034 l 358 1034 l 302 770 q 318 804 306 788 q 349 831 331 819 q 380 845 364 841 q 412 850 397 850 l 504 850 q 571 832 543 850 q 618 779 600 815 q 636 607 659 708 l 509 0 l 415 0 z "},"i":{"ha":184,"x_min":46,"x_max":319,"o":"m 46 0 l 228 850 l 319 850 l 139 0 l 46 0 z "},"j":{"ha":370,"x_min":-32,"x_max":504,"o":"m 297 -122 q 208 -294 277 -225 q 136 -348 172 -330 q 61 -366 100 -366 l -32 -366 l 21 -122 l 113 -122 q 152 -113 133 -122 q 186 -87 171 -103 q 214 -48 202 -71 q 231 0 225 -26 l 359 607 l 175 607 l 228 850 l 504 850 l 297 -122 z "},"k":{"ha":554,"x_min":46,"x_max":689,"o":"m 415 0 l 454 182 q 458 231 460 208 q 447 269 456 253 q 423 295 438 286 q 387 304 408 304 l 203 304 l 139 0 l 46 0 l 267 1034 l 358 1034 l 256 547 l 440 547 q 479 556 460 547 q 513 582 498 566 q 541 620 529 598 q 558 668 553 642 l 597 850 l 689 850 l 646 644 q 624 576 638 609 q 590 514 610 543 q 546 463 570 486 q 494 425 522 440 q 530 387 515 410 q 551 336 544 364 q 559 274 559 307 q 551 207 559 241 l 509 0 l 415 0 z "},"l":{"ha":254,"x_min":76,"x_max":358,"o":"m 231 0 q 114 71 154 0 q 98 243 76 142 l 267 1034 l 358 1034 l 216 364 q 213 316 211 338 q 224 278 215 294 q 248 252 233 262 q 283 243 263 243 l 231 0 z "},"m":{"ha":924,"x_min":46,"x_max":1028,"o":"m 785 0 l 889 486 q 891 533 894 511 q 879 572 888 555 q 855 597 870 588 q 821 607 840 607 l 729 607 q 690 598 709 607 q 656 572 671 589 q 629 534 640 556 q 611 486 617 512 l 509 0 l 415 0 l 519 486 q 522 534 524 512 q 511 572 519 556 q 487 598 502 589 q 452 607 472 607 l 359 607 q 322 597 340 607 q 287 572 303 588 q 259 533 271 555 q 241 486 248 511 l 139 0 l 46 0 l 175 607 q 267 779 196 708 q 412 850 335 850 l 468 850 q 524 838 498 850 q 567 805 549 827 q 595 753 585 784 q 607 685 606 723 q 649 753 625 723 q 700 805 673 784 q 758 838 728 827 q 818 850 787 850 l 873 850 q 987 779 952 850 q 1006 607 1028 709 l 878 0 l 785 0 z "},"n":{"ha":554,"x_min":46,"x_max":659,"o":"m 415 0 l 519 486 q 522 534 524 512 q 511 572 519 556 q 487 598 502 589 q 452 607 472 607 l 359 607 q 322 597 340 607 q 287 572 303 588 q 259 533 271 555 q 241 486 248 511 l 139 0 l 46 0 l 175 607 q 208 701 186 658 q 265 779 230 743 q 412 850 336 850 l 504 850 q 572 833 544 850 q 619 781 601 817 q 636 607 659 708 l 509 0 l 415 0 z "},"o":{"ha":554,"x_min":76,"x_max":659,"o":"m 519 486 q 522 533 524 511 q 510 572 519 555 q 486 597 500 588 q 452 607 471 607 l 359 607 q 322 597 340 607 q 287 572 303 588 q 259 533 271 555 q 241 486 248 511 l 216 364 q 213 317 211 339 q 225 278 216 295 q 249 252 234 262 q 283 243 264 243 l 375 243 q 414 252 395 243 q 449 278 433 262 q 476 316 465 294 q 493 364 488 338 l 519 486 m 559 243 q 527 149 549 192 q 469 71 505 106 q 398 18 434 35 q 323 0 362 0 l 231 0 q 114 71 154 0 q 98 243 76 142 l 175 607 q 208 701 186 658 q 265 779 230 743 q 412 850 336 850 l 504 850 q 571 832 543 850 q 618 779 600 815 q 636 607 659 708 l 559 243 z "},"p":{"ha":554,"x_min":-5,"x_max":659,"o":"m 519 486 q 522 533 524 511 q 510 572 519 555 q 486 597 500 588 q 452 607 471 607 l 359 607 q 320 598 339 607 q 286 572 302 589 q 259 534 271 556 q 241 486 248 512 l 216 364 q 213 317 211 339 q 225 278 216 295 q 249 252 234 262 q 283 243 264 243 l 375 243 q 413 252 394 243 q 448 278 432 262 q 476 317 465 295 q 493 364 488 339 l 519 486 m 559 243 q 469 72 539 144 q 323 0 399 0 l 231 0 q 201 4 215 0 q 176 20 187 9 q 155 82 149 42 l 86 -243 l -5 -243 l 175 607 q 208 701 186 658 q 265 781 230 745 q 337 833 301 817 q 412 850 372 850 l 504 850 q 571 832 543 850 q 618 779 600 815 q 636 607 659 708 l 559 243 z "},"q":{"ha":554,"x_min":76,"x_max":659,"o":"m 519 486 q 522 534 524 512 q 511 572 519 556 q 487 598 502 589 q 452 607 472 607 l 359 607 q 322 597 340 607 q 287 572 303 588 q 259 533 271 555 q 241 486 248 511 l 216 364 q 213 317 211 339 q 225 278 216 295 q 249 252 234 262 q 283 243 264 243 l 375 243 q 413 252 394 243 q 448 278 432 262 q 476 317 465 295 q 493 364 488 339 l 519 486 m 364 -243 l 432 82 q 385 20 424 42 q 355 4 370 9 q 323 0 339 0 l 231 0 q 117 72 152 0 q 98 243 76 144 l 175 607 q 267 779 196 708 q 412 850 335 850 l 504 850 q 572 833 544 850 q 619 781 601 817 q 636 607 659 708 l 456 -243 l 364 -243 z "},"r":{"ha":439,"x_min":46,"x_max":597,"o":"m 359 607 q 322 597 340 607 q 287 572 303 588 q 259 533 271 555 q 241 486 248 511 l 139 0 l 46 0 l 228 850 l 319 850 l 302 770 q 349 831 312 806 q 380 845 364 841 q 412 850 397 850 l 597 850 l 545 607 l 359 607 z "},"s":{"ha":554,"x_min":46,"x_max":689,"o":"m 559 243 q 469 72 539 144 q 323 0 399 0 l 46 0 l 98 243 l 375 243 q 411 260 395 243 q 433 304 428 278 q 435 328 436 317 q 430 347 434 338 q 418 359 425 355 q 401 364 411 364 l 309 364 q 193 436 231 364 q 175 607 155 509 q 267 779 196 708 q 412 850 335 850 l 689 850 l 636 607 l 359 607 q 324 590 341 607 q 301 547 307 572 q 306 504 296 522 q 335 486 315 486 l 427 486 q 541 414 504 486 q 566 336 562 378 q 559 243 570 294 z "},"t":{"ha":439,"x_min":76,"x_max":504,"o":"m 231 0 q 114 71 154 0 q 98 243 76 142 l 253 972 l 345 972 l 319 850 l 504 850 l 479 729 l 294 729 l 216 364 q 213 316 211 338 q 224 278 215 294 q 248 252 233 262 q 283 243 263 243 l 468 243 l 415 0 l 231 0 z "},"u":{"ha":554,"x_min":76,"x_max":689,"o":"m 559 243 q 527 149 549 192 q 469 71 505 106 q 398 18 434 35 q 323 0 362 0 l 231 0 q 114 71 154 0 q 98 243 76 142 l 228 850 l 319 850 l 216 364 q 213 317 211 339 q 225 278 216 295 q 249 252 234 262 q 283 243 264 243 l 375 243 q 414 252 395 243 q 449 278 433 262 q 476 316 465 294 q 493 364 488 338 l 597 850 l 689 850 l 559 243 z "},"v":{"ha":554,"x_min":46,"x_max":689,"o":"m 559 243 q 527 149 549 192 q 469 71 505 106 q 398 18 434 35 q 323 0 362 0 l 46 0 l 228 850 l 319 850 l 191 243 l 375 243 q 414 252 395 243 q 449 278 433 262 q 476 316 465 294 q 493 364 488 338 l 597 850 l 689 850 l 559 243 z "},"w":{"ha":924,"x_min":76,"x_max":1059,"o":"m 929 243 q 839 72 909 144 q 693 0 768 0 l 636 0 q 581 12 606 0 q 538 44 556 23 q 509 97 519 66 q 497 165 498 127 q 456 97 479 127 q 405 44 432 66 q 347 12 377 23 q 286 0 317 0 l 231 0 q 117 72 152 0 q 98 243 76 144 l 228 850 l 319 850 l 216 364 q 213 317 211 339 q 225 278 216 295 q 249 252 234 262 q 283 243 264 243 l 375 243 q 414 252 395 243 q 449 278 433 262 q 476 316 465 294 q 493 364 488 338 l 597 850 l 689 850 l 586 364 q 583 316 581 338 q 593 278 585 294 q 617 252 602 262 q 653 243 633 243 l 745 243 q 783 252 764 243 q 818 278 802 262 q 845 317 833 295 q 863 364 857 339 l 966 850 l 1059 850 l 929 243 z "},"x":{"ha":554,"x_min":46,"x_max":689,"o":"m 452 0 q 354 46 394 0 q 325 100 334 70 q 313 168 315 130 q 273 100 297 130 q 220 46 249 70 q 102 0 160 0 l 46 0 l 98 243 l 191 243 q 229 252 210 243 q 263 278 248 262 q 291 317 279 295 q 309 364 303 339 l 335 486 q 337 533 340 511 q 325 572 334 555 q 301 597 316 588 q 267 607 286 607 l 175 607 l 228 850 l 283 850 q 380 803 342 850 q 411 750 399 780 q 422 684 422 721 q 514 803 454 757 q 574 838 545 827 q 633 850 604 850 l 689 850 l 636 607 l 545 607 q 506 597 525 607 q 472 572 488 588 q 444 533 456 555 q 427 486 432 511 l 401 364 q 398 317 395 339 q 409 278 400 295 q 433 252 418 262 q 468 243 448 243 l 559 243 l 509 0 l 452 0 z "},"y":{"ha":554,"x_min":76,"x_max":689,"o":"m 482 -122 q 393 -294 460 -225 q 320 -348 357 -330 q 245 -366 284 -366 l 153 -366 l 205 -122 l 297 -122 q 336 -113 317 -122 q 371 -87 355 -103 q 398 -48 387 -71 q 415 0 410 -26 l 432 82 q 385 20 424 42 q 355 4 370 9 q 323 0 339 0 l 231 0 q 117 72 152 0 q 98 243 76 144 l 228 850 l 319 850 l 216 364 q 213 317 211 339 q 225 278 216 295 q 249 252 234 262 q 283 243 264 243 l 375 243 q 414 252 395 243 q 449 278 433 262 q 476 316 465 294 q 493 364 488 338 l 597 850 l 689 850 l 482 -122 z "},"z":{"ha":554,"x_min":46,"x_max":689,"o":"m 46 0 l 98 243 l 471 607 l 175 607 l 228 850 l 689 850 l 636 607 l 265 243 l 559 243 l 509 0 l 46 0 z "},"{":{"ha":415,"x_min":136,"x_max":555,"o":"m 297 -122 q 231 -104 260 -122 q 182 -50 201 -85 q 158 28 163 -14 q 164 121 153 71 l 228 425 l 136 425 l 163 547 l 256 547 l 319 850 q 411 1022 340 951 q 555 1093 478 1093 l 504 850 q 466 840 485 850 q 431 814 447 831 q 403 776 415 798 q 386 729 391 754 l 283 243 q 280 196 277 218 q 291 157 282 174 q 314 131 300 140 q 349 121 329 121 l 297 -122 z "},"|":{"ha":184,"x_min":21,"x_max":371,"o":"m 21 -122 l 278 1093 l 371 1093 l 113 -122 l 21 -122 z "},"}":{"ha":415,"x_min":66,"x_max":486,"o":"m 367 425 l 302 121 q 211 -50 282 21 q 141 -104 178 -85 q 66 -122 105 -122 l 118 121 q 156 131 137 121 q 191 157 175 140 q 220 196 208 174 q 237 243 232 218 l 340 729 q 343 776 345 754 q 331 814 340 798 q 307 840 322 831 q 273 850 292 850 l 325 1093 q 440 1022 400 1093 q 464 944 459 987 q 458 850 468 901 l 393 547 l 486 547 l 460 425 l 367 425 z "},"~":{"ha":481,"x_min":126,"x_max":545,"o":"m 524 425 q 455 389 490 401 q 385 376 420 376 q 358 382 373 376 q 325 401 342 389 q 293 419 307 413 q 265 425 278 425 q 126 376 194 425 l 147 473 q 216 511 182 499 q 286 522 250 522 q 346 498 310 522 q 406 473 382 473 q 545 522 476 473 l 524 425 z "},"€":{"ha":554,"x_min":76,"x_max":714,"o":"m 231 0 q 117 72 152 0 q 98 243 76 144 l 201 729 q 293 900 222 829 q 437 972 361 972 l 714 972 l 664 729 l 386 729 q 348 720 367 729 q 313 693 329 710 q 285 654 297 677 q 267 607 273 632 l 545 607 l 526 522 l 249 522 l 235 450 l 511 450 l 493 364 l 216 364 q 213 317 211 339 q 225 278 216 295 q 249 252 234 262 q 283 243 264 243 l 559 243 l 509 0 l 231 0 z "},"‚":{"ha":221,"x_min":46,"x_max":211,"o":"m 57 -122 l 66 -74 l 122 -74 l 139 0 l 46 0 l 82 170 l 211 170 l 150 -122 l 57 -122 z "},"ƒ":{"ha":530,"x_min":-216,"x_max":728,"o":"m 660 790 l 475 790 q 436 781 454 790 q 400 756 417 772 q 371 718 384 740 q 349 668 357 695 q 315 547 345 663 l 500 547 l 467 425 l 282 425 l 163 0 q 148 -50 156 -20 q 129 -122 140 -80 q 25 -296 98 -226 q -123 -366 -45 -366 l -216 -366 l -149 -122 l -56 -122 q -17 -113 -37 -122 q 20 -87 3 -103 q 50 -48 37 -71 q 71 0 63 -26 l 290 790 q 331 884 305 842 q 392 962 356 927 q 466 1016 429 998 q 543 1034 503 1034 l 728 1034 l 660 790 z "},"„":{"ha":425,"x_min":46,"x_max":415,"o":"m 57 -122 l 66 -74 l 122 -74 l 139 0 l 46 0 l 82 170 l 211 170 l 150 -122 l 57 -122 m 261 -122 l 271 -74 l 325 -74 l 342 0 l 249 0 l 286 170 l 415 170 l 354 -122 l 261 -122 z "},"…":{"ha":665,"x_min":46,"x_max":656,"o":"m 46 0 l 82 170 l 211 170 l 175 0 l 46 0 m 267 0 l 304 170 l 433 170 l 397 0 l 267 0 m 490 0 l 526 170 l 656 170 l 618 0 l 490 0 z "},"†":{"ha":461,"x_min":132,"x_max":571,"o":"m 406 607 l 225 -243 l 132 -243 l 314 607 l 175 607 l 201 729 l 340 729 l 392 972 l 484 972 l 432 729 l 571 729 l 545 607 l 406 607 z "},"‡":{"ha":461,"x_min":98,"x_max":571,"o":"m 329 243 l 225 -243 l 132 -243 l 237 243 l 98 243 l 123 364 l 262 364 l 314 607 l 175 607 l 201 729 l 340 729 l 392 972 l 484 972 l 432 729 l 571 729 l 545 607 l 406 607 l 354 364 l 493 364 l 468 243 l 329 243 z "},"ˆ":{"ha":314,"x_min":216,"x_max":437,"o":"m 383 802 l 349 904 l 272 802 l 216 802 l 326 972 l 401 972 l 437 802 l 383 802 z "},"‰":{"ha":1265,"x_min":148,"x_max":1332,"o":"m 471 699 q 473 734 475 718 q 465 763 471 751 q 448 783 458 776 q 422 790 437 790 l 353 790 q 325 783 338 790 q 298 763 311 776 q 277 734 286 751 q 264 699 268 718 l 244 607 q 243 572 241 589 q 252 544 245 556 q 269 524 258 531 q 294 517 280 517 l 364 517 q 393 524 378 517 q 419 543 407 530 q 439 571 431 555 q 452 607 448 587 l 471 699 m 950 364 q 951 399 954 382 q 943 428 949 416 q 925 448 937 441 q 900 456 914 456 l 831 456 q 802 448 817 456 q 776 428 788 441 q 755 399 764 416 q 743 364 747 382 l 724 273 q 721 238 720 255 q 730 209 723 222 q 747 189 736 197 q 772 182 758 182 l 842 182 q 870 189 856 182 q 897 208 884 196 q 918 237 909 220 q 930 273 926 254 l 950 364 m 1227 364 q 1230 399 1232 382 q 1221 428 1227 416 q 1203 448 1215 441 q 1178 456 1192 456 l 1108 456 q 1080 448 1094 456 q 1053 428 1065 441 q 1032 399 1041 416 q 1019 364 1023 382 l 1000 273 q 998 237 996 254 q 1006 208 1000 220 q 1024 189 1013 196 q 1050 182 1036 182 l 1120 182 q 1148 189 1134 182 q 1174 209 1162 197 q 1195 238 1186 222 q 1208 273 1204 255 l 1227 364 m 501 517 q 477 446 493 478 q 435 386 460 414 q 325 335 384 335 l 256 335 q 170 387 199 335 q 151 446 155 414 q 155 517 148 479 l 214 790 q 239 860 222 828 q 282 918 256 892 q 335 959 307 945 q 392 972 363 972 l 461 972 q 549 918 519 972 q 566 860 564 892 q 559 790 568 828 l 501 517 m 449 0 l 656 972 l 747 972 l 541 0 l 449 0 m 1258 182 q 1190 53 1242 106 q 1137 14 1164 27 q 1080 0 1110 0 l 1048 0 q 1004 9 1025 0 q 969 35 984 18 q 944 76 954 52 q 935 127 935 99 q 902 76 921 99 q 861 35 883 52 q 814 9 838 18 q 766 0 790 0 l 733 0 q 646 53 675 0 q 630 112 633 80 q 635 182 627 144 l 693 456 q 718 525 701 493 q 760 585 734 557 q 813 624 785 610 q 869 637 841 637 l 903 637 q 946 628 926 637 q 981 602 966 619 q 1005 562 996 585 q 1015 510 1014 538 q 1048 562 1029 538 q 1090 602 1067 585 q 1137 628 1113 619 q 1185 637 1161 637 l 1217 637 q 1303 585 1273 637 q 1317 456 1332 532 l 1258 182 z "},"Š":{"ha":554,"x_min":46,"x_max":714,"o":"m 559 243 q 469 72 539 144 q 323 0 399 0 l 46 0 l 98 243 l 353 243 q 381 250 367 243 q 407 270 395 258 q 428 299 419 283 q 440 335 437 316 q 443 370 444 353 q 434 398 441 386 q 415 418 427 410 q 390 425 404 425 l 321 425 q 254 444 282 425 q 207 497 226 462 q 189 668 165 568 l 201 729 q 293 900 222 829 q 437 972 361 972 l 714 972 l 664 729 l 410 729 q 381 722 395 729 q 355 702 367 715 q 333 673 342 690 q 321 637 324 656 q 319 602 317 618 q 328 574 321 586 q 346 554 335 562 q 371 547 357 547 l 440 547 q 554 475 515 547 q 579 397 574 439 q 572 304 584 355 l 559 243 m 536 1044 l 463 1044 l 425 1215 l 481 1215 l 514 1112 l 591 1215 l 646 1215 l 536 1044 z "},"‹":{"ha":364,"x_min":140,"x_max":457,"o":"m 329 239 l 140 437 l 160 534 l 433 733 l 457 652 l 228 486 l 386 321 l 329 239 z "},"Œ":{"ha":785,"x_min":76,"x_max":946,"o":"m 545 607 q 547 654 549 632 q 536 693 545 677 q 512 720 527 710 q 479 729 498 729 l 386 729 q 348 720 367 729 q 313 693 329 710 q 285 654 297 677 q 267 607 273 632 l 216 364 q 213 317 211 339 q 225 278 216 295 q 249 252 234 262 q 283 243 264 243 l 375 243 q 414 252 395 243 q 449 278 433 262 q 476 316 465 294 q 493 364 488 338 l 545 607 m 636 0 q 582 12 606 0 q 540 47 557 24 q 512 102 522 70 q 500 174 502 134 q 460 102 484 134 q 408 47 436 70 q 349 12 380 24 q 286 0 318 0 l 231 0 q 114 71 154 0 q 98 243 76 142 l 201 729 q 292 900 222 830 q 362 954 326 936 q 437 972 399 972 l 493 972 q 607 903 569 972 l 623 972 l 946 972 l 895 729 l 664 729 l 625 547 l 762 547 l 736 425 l 597 425 l 586 364 q 583 316 581 338 q 593 278 585 294 q 617 252 602 262 q 653 243 633 243 l 791 243 l 739 0 l 636 0 z "},"Ž":{"ha":554,"x_min":46,"x_max":714,"o":"m 46 0 l 98 243 l 525 729 l 201 729 l 253 972 l 714 972 l 664 729 l 237 243 l 559 243 l 509 0 l 46 0 m 536 1044 l 463 1044 l 425 1215 l 481 1215 l 514 1112 l 591 1215 l 646 1215 l 536 1044 z "},"‘":{"ha":221,"x_min":204,"x_max":368,"o":"m 204 742 l 267 1034 l 358 1034 l 347 985 l 292 985 l 277 911 l 368 911 l 334 742 l 204 742 z "},"’":{"ha":221,"x_min":229,"x_max":395,"o":"m 240 742 l 250 790 l 306 790 l 322 863 l 229 863 l 267 1034 l 395 1034 l 334 742 l 240 742 z "},"“":{"ha":425,"x_min":204,"x_max":572,"o":"m 204 742 l 267 1034 l 358 1034 l 347 985 l 292 985 l 277 911 l 368 911 l 334 742 l 204 742 m 407 742 l 469 1034 l 561 1034 l 550 985 l 496 985 l 481 911 l 572 911 l 538 742 l 407 742 z "},"”":{"ha":425,"x_min":229,"x_max":599,"o":"m 240 742 l 250 790 l 306 790 l 322 863 l 229 863 l 267 1034 l 395 1034 l 334 742 l 240 742 m 444 742 l 454 790 l 510 790 l 525 863 l 432 863 l 469 1034 l 599 1034 l 538 742 l 444 742 z "},"•":{"ha":415,"x_min":136,"x_max":460,"o":"m 419 340 q 401 292 413 314 q 374 253 389 269 q 339 228 358 237 q 300 218 320 218 l 208 218 q 174 228 189 218 q 150 254 159 237 q 139 293 141 271 q 142 340 136 315 l 178 510 q 195 557 183 535 q 223 596 207 580 q 258 623 239 613 q 296 632 277 632 l 389 632 q 422 623 408 632 q 446 596 437 613 q 457 557 455 580 q 454 510 460 535 l 419 340 z "},"–":{"ha":370,"x_min":126,"x_max":424,"o":"m 126 376 l 147 473 l 424 473 l 403 376 l 126 376 z "},"—":{"ha":554,"x_min":126,"x_max":608,"o":"m 126 376 l 147 473 l 608 473 l 587 376 l 126 376 z "},"˜":{"ha":370,"x_min":222,"x_max":529,"o":"m 510 875 q 458 838 484 850 q 407 827 433 827 q 366 850 389 827 q 344 869 355 863 q 325 875 334 875 q 272 863 298 875 q 222 827 246 852 l 243 924 q 345 972 291 972 q 365 966 354 972 q 386 947 376 960 q 428 924 410 924 q 479 935 454 924 q 529 972 505 947 l 510 875 z "},"™":{"ha":1035,"x_min":214,"x_max":1172,"o":"m 996 364 l 1067 699 q 1069 734 1071 718 q 1060 763 1067 751 q 1042 783 1053 776 q 1017 790 1031 790 l 947 790 q 918 783 932 790 q 892 764 904 777 q 872 735 881 752 q 860 699 863 718 l 789 364 l 720 364 l 790 699 q 785 764 799 739 q 741 790 771 790 l 671 790 q 643 783 656 790 q 616 763 629 776 q 595 734 604 751 q 582 699 586 718 l 511 364 l 441 364 l 532 790 l 422 790 l 332 364 l 262 364 l 353 790 l 214 790 l 253 972 l 599 972 l 583 899 q 644 954 613 935 q 710 972 675 972 l 751 972 q 792 963 774 972 q 825 938 811 954 q 847 899 839 922 q 857 848 855 876 q 887 899 869 876 q 926 938 905 922 q 970 963 947 954 q 1015 972 993 972 l 1055 972 q 1143 918 1114 972 q 1156 790 1172 866 l 1065 364 l 996 364 z "},"š":{"ha":554,"x_min":46,"x_max":689,"o":"m 559 243 q 469 72 539 144 q 323 0 399 0 l 46 0 l 98 243 l 375 243 q 411 260 395 243 q 433 304 428 278 q 435 328 436 317 q 430 347 434 338 q 418 359 425 355 q 401 364 411 364 l 309 364 q 193 436 231 364 q 175 607 155 509 q 267 779 196 708 q 412 850 335 850 l 689 850 l 636 607 l 359 607 q 324 590 341 607 q 301 547 307 572 q 306 504 296 522 q 335 486 315 486 l 427 486 q 541 414 504 486 q 566 336 562 378 q 559 243 570 294 m 510 924 l 437 924 l 399 1093 l 453 1093 l 488 991 l 566 1093 l 619 1093 l 510 924 z "},"›":{"ha":364,"x_min":114,"x_max":432,"o":"m 138 239 l 114 321 l 345 486 l 184 652 l 241 733 l 432 534 l 412 437 l 138 239 z "},"œ":{"ha":831,"x_min":76,"x_max":966,"o":"m 519 486 q 522 533 524 511 q 510 572 519 555 q 486 597 500 588 q 452 607 471 607 l 359 607 q 322 597 340 607 q 287 572 303 588 q 259 533 271 555 q 241 486 248 511 l 216 364 q 213 317 211 339 q 225 278 216 295 q 249 252 234 262 q 283 243 264 243 l 375 243 q 414 252 395 243 q 449 278 433 262 q 476 316 465 294 q 493 364 488 338 l 519 486 m 636 0 q 539 46 579 0 q 508 99 519 69 q 497 167 497 129 q 456 98 479 129 q 405 45 432 67 q 347 12 377 24 q 286 0 317 0 l 231 0 q 114 71 154 0 q 98 243 76 142 l 175 607 q 208 701 186 658 q 265 779 230 743 q 412 850 336 850 l 468 850 q 566 803 527 850 q 595 750 584 780 q 607 684 606 721 q 646 750 623 721 q 699 803 670 780 q 818 850 758 850 l 966 850 l 914 607 l 729 607 q 691 597 709 607 q 656 572 672 588 q 629 533 641 555 q 611 486 617 511 l 796 486 l 771 364 l 586 364 q 583 317 581 339 q 594 278 585 295 q 618 252 604 262 q 653 243 633 243 l 838 243 l 785 0 l 636 0 z "},"ž":{"ha":554,"x_min":46,"x_max":689,"o":"m 46 0 l 98 243 l 471 607 l 175 607 l 228 850 l 689 850 l 636 607 l 265 243 l 559 243 l 509 0 l 46 0 m 510 924 l 437 924 l 399 1093 l 453 1093 l 488 991 l 566 1093 l 619 1093 l 510 924 z "},"Ÿ":{"ha":554,"x_min":149,"x_max":714,"o":"m 623 534 q 589 441 611 484 q 530 363 566 398 q 460 309 496 327 q 385 292 425 292 l 323 0 l 231 0 l 293 292 q 178 363 215 292 q 154 441 158 398 q 160 534 149 484 l 253 972 l 345 972 l 278 656 q 275 609 273 631 q 287 570 278 587 q 311 544 296 553 q 345 534 326 534 l 437 534 q 476 544 457 534 q 511 570 495 553 q 538 608 526 586 q 555 656 550 630 l 623 972 l 714 972 l 623 534 m 361 1044 l 386 1166 l 479 1166 l 453 1044 l 361 1044 m 546 1044 l 571 1166 l 664 1166 l 637 1044 l 546 1044 z "},"¡":{"ha":221,"x_min":21,"x_max":355,"o":"m 21 -122 l 201 558 l 257 558 l 150 -122 l 21 -122 m 191 681 l 228 850 l 355 850 l 319 681 l 191 681 z "},"¢":{"ha":554,"x_min":103,"x_max":714,"o":"m 395 121 l 370 0 l 277 0 l 302 121 l 257 121 q 190 139 218 121 q 142 193 161 157 q 123 364 103 262 l 201 729 q 293 900 222 829 q 437 972 361 972 l 484 972 l 510 1093 l 602 1093 l 576 972 l 714 972 l 664 729 l 386 729 q 348 720 367 729 q 313 693 329 710 q 285 654 297 677 q 267 607 273 632 l 241 486 q 239 439 236 461 q 251 400 241 416 q 274 374 260 383 q 309 364 289 364 l 586 364 l 533 121 l 395 121 z "},"£":{"ha":554,"x_min":46,"x_max":636,"o":"m 46 0 l 214 790 q 247 884 224 842 q 304 962 269 927 q 376 1016 340 998 q 452 1034 412 1034 l 636 1034 l 583 790 l 399 790 q 359 781 378 790 q 325 755 340 771 q 298 716 309 739 q 281 668 286 694 l 256 547 l 440 547 l 412 425 l 228 425 l 191 243 l 559 243 l 509 0 l 46 0 z "},"¤":{"ha":554,"x_min":76,"x_max":714,"o":"m 231 0 q 117 72 152 0 q 98 243 76 144 l 201 729 q 293 900 222 829 q 437 972 361 972 l 714 972 l 664 729 l 386 729 q 348 720 367 729 q 313 693 329 710 q 285 654 297 677 q 267 607 273 632 l 545 607 l 526 522 l 249 522 l 235 450 l 511 450 l 493 364 l 216 364 q 213 317 211 339 q 225 278 216 295 q 249 252 234 262 q 283 243 264 243 l 559 243 l 509 0 l 231 0 z "},"¥":{"ha":554,"x_min":72,"x_max":714,"o":"m 349 121 l 323 0 l 231 0 l 257 121 l 72 121 l 98 243 l 283 243 l 309 364 l 123 364 l 150 486 l 335 486 q 218 557 257 486 q 201 729 180 629 l 253 972 l 345 972 l 304 778 q 301 731 298 753 q 312 692 303 709 q 336 666 321 675 q 371 656 351 656 l 463 656 q 502 665 483 656 q 537 690 521 674 q 564 729 553 707 q 581 778 575 751 l 623 972 l 714 972 l 664 729 q 630 635 652 678 q 572 557 608 593 q 502 504 538 522 q 427 486 467 486 l 611 486 l 586 364 l 401 364 l 375 243 l 559 243 l 533 121 l 349 121 z "},"¦":{"ha":184,"x_min":21,"x_max":371,"o":"m 21 -122 l 131 401 l 224 401 l 113 -122 l 21 -122 m 168 571 l 278 1093 l 371 1093 l 260 571 l 168 571 z "},"§":{"ha":554,"x_min":-5,"x_max":714,"o":"m 447 364 q 450 412 452 389 q 438 451 448 434 q 414 477 429 467 q 380 486 399 486 q 342 477 361 486 q 308 451 323 467 q 280 412 292 434 q 262 364 268 389 q 259 317 257 339 q 271 278 262 295 q 295 252 280 262 q 329 243 310 243 q 367 252 348 243 q 402 278 386 262 q 430 317 418 295 q 447 364 441 339 m 509 0 q 416 -171 485 -100 q 346 -225 383 -208 q 271 -243 309 -243 l -5 -243 l 46 0 l 323 0 q 360 18 342 0 q 383 61 377 36 q 377 103 387 85 q 349 121 368 121 l 257 121 q 190 139 218 121 q 142 193 161 157 q 123 364 103 262 q 161 465 136 419 q 225 547 185 511 q 201 729 178 619 q 293 900 222 829 q 437 972 361 972 l 714 972 l 664 729 l 386 729 q 350 711 367 729 q 326 668 333 693 q 325 645 323 656 q 331 626 326 634 q 343 612 336 617 q 359 607 350 607 l 452 607 q 568 536 528 607 q 586 364 605 465 q 485 182 562 254 q 509 0 531 109 z "},"¨":{"ha":370,"x_min":228,"x_max":529,"o":"m 228 850 l 253 972 l 345 972 l 319 850 l 228 850 m 412 850 l 437 972 l 529 972 l 504 850 l 412 850 z "},"©":{"ha":646,"x_min":76,"x_max":724,"o":"m 314 146 q 279 155 294 146 q 255 181 264 165 q 244 219 246 197 q 248 267 241 241 l 297 510 q 315 557 303 535 q 343 596 328 580 q 378 623 359 613 q 416 632 397 632 l 555 632 l 529 510 l 390 510 q 371 505 380 510 q 353 492 361 500 q 339 473 345 484 q 332 450 334 463 l 306 328 q 304 304 303 315 q 310 285 306 294 q 322 272 315 277 q 339 267 330 267 l 478 267 l 452 146 l 314 146 m 668 583 q 672 630 674 608 q 660 669 669 652 q 636 694 651 685 q 602 704 621 704 l 345 704 q 306 694 325 704 q 271 669 288 685 q 243 630 255 652 q 227 583 231 608 l 143 195 q 140 147 138 170 q 152 108 143 125 q 176 82 161 92 q 210 72 191 72 l 468 72 q 507 81 488 72 q 541 107 526 91 q 569 146 557 123 q 586 195 581 168 l 668 583 m 653 243 q 619 149 642 192 q 561 71 597 106 q 491 18 526 35 q 415 0 455 0 l 231 0 q 114 71 154 0 q 98 243 76 142 l 160 534 q 249 705 180 636 q 396 778 320 778 l 581 778 q 694 705 658 778 q 720 628 715 670 q 714 534 724 585 l 653 243 z "},"ª":{"ha":439,"x_min":148,"x_max":568,"o":"m 471 699 q 466 764 479 739 q 422 790 452 790 l 353 790 q 325 783 338 790 q 298 763 311 776 q 277 734 286 751 q 264 699 268 718 l 244 607 q 243 572 241 589 q 252 544 245 556 q 269 524 258 531 q 294 517 280 517 l 364 517 q 392 524 378 517 q 418 544 406 531 q 439 572 430 556 q 452 607 448 589 l 471 699 m 393 335 l 407 395 q 395 368 404 380 q 372 349 386 357 q 325 335 350 335 l 256 335 q 170 387 199 335 q 151 446 155 414 q 155 517 148 479 l 214 790 q 239 860 222 828 q 282 918 256 892 q 335 959 307 945 q 392 972 363 972 l 461 972 q 549 918 519 972 q 566 860 564 892 q 559 790 568 828 l 463 335 l 393 335 z "},"«":{"ha":642,"x_min":89,"x_max":684,"o":"m 278 0 l 89 199 l 110 296 l 383 493 l 406 412 l 178 248 l 335 82 l 278 0 m 555 0 l 366 199 l 386 296 l 660 493 l 684 412 l 454 248 l 612 82 l 555 0 z "},"¬":{"ha":461,"x_min":126,"x_max":517,"o":"m 396 256 l 422 376 l 126 376 l 147 473 l 517 473 l 471 256 l 396 256 z "},"®":{"ha":646,"x_min":76,"x_max":724,"o":"m 468 465 q 464 497 472 484 q 441 510 456 510 l 363 510 l 343 419 l 422 419 q 450 433 437 419 q 468 465 464 448 m 424 146 l 452 273 q 454 307 455 291 q 448 334 453 322 q 433 352 443 345 q 411 358 424 358 l 330 358 l 286 146 l 239 146 l 343 632 l 481 632 q 514 623 500 632 q 538 596 529 613 q 550 557 547 580 q 547 510 552 535 q 515 433 536 464 q 458 389 493 402 q 497 273 517 362 l 471 146 l 424 146 m 668 583 q 672 630 674 608 q 660 669 669 652 q 636 694 651 685 q 602 704 621 704 l 345 704 q 306 694 325 704 q 271 669 288 685 q 243 630 255 652 q 227 583 231 608 l 143 195 q 140 147 138 170 q 152 108 143 125 q 176 82 161 92 q 210 72 191 72 l 468 72 q 507 81 488 72 q 541 107 526 91 q 569 146 557 123 q 586 195 581 168 l 668 583 m 653 243 q 619 149 642 192 q 561 71 597 106 q 491 18 526 35 q 415 0 455 0 l 231 0 q 114 71 154 0 q 98 243 76 142 l 160 534 q 249 705 180 636 q 396 778 320 778 l 581 778 q 694 705 658 778 q 720 628 715 670 q 714 534 724 585 l 653 243 z "},"°":{"ha":314,"x_min":229,"x_max":469,"o":"m 419 888 q 422 925 424 907 q 412 956 420 943 q 393 977 405 969 q 366 985 380 985 q 335 977 350 985 q 308 956 320 969 q 285 925 295 943 q 271 888 275 907 q 269 849 267 867 q 279 818 271 831 q 298 798 286 805 q 325 790 310 790 q 355 798 340 790 q 382 818 370 805 q 405 849 395 831 q 419 888 415 867 m 456 888 q 436 831 449 857 q 403 783 422 804 q 359 752 382 762 q 315 742 337 742 q 275 752 294 742 q 245 783 256 762 q 231 831 233 804 q 235 888 229 857 q 289 990 247 948 q 332 1022 309 1011 q 376 1034 355 1034 q 417 1022 399 1034 q 446 990 435 1011 q 456 888 469 949 z "},"±":{"ha":461,"x_min":46,"x_max":529,"o":"m 46 0 l 66 97 l 436 97 l 415 0 l 46 0 m 361 437 l 319 243 l 248 243 l 288 437 l 140 437 l 160 534 l 309 534 l 350 729 l 422 729 l 382 534 l 529 534 l 510 437 l 361 437 z "},"²":{"ha":323,"x_min":175,"x_max":489,"o":"m 175 607 l 208 760 q 225 807 214 785 q 253 845 237 829 q 288 871 269 861 q 325 880 307 880 l 343 880 q 404 928 396 878 q 401 959 408 945 q 379 972 394 972 l 253 972 l 278 1093 l 416 1093 q 451 1084 435 1093 q 475 1058 466 1074 q 487 1020 484 1042 q 484 972 489 998 l 478 942 q 460 895 472 917 q 431 856 448 873 q 396 830 415 840 q 358 821 377 821 l 301 821 q 274 807 287 821 q 257 775 261 794 l 248 729 l 432 729 l 406 607 l 175 607 z "},"³":{"ha":323,"x_min":175,"x_max":488,"o":"m 432 729 q 415 682 427 704 q 387 643 403 660 q 352 617 370 627 q 314 607 333 607 l 175 607 l 201 729 l 328 729 q 355 743 342 729 q 374 775 368 758 q 369 807 377 794 q 346 821 361 821 l 267 821 l 279 880 l 359 880 q 388 895 374 880 q 404 928 401 909 q 401 959 408 945 q 379 972 394 972 l 253 972 l 278 1093 l 416 1093 q 452 1083 437 1093 q 476 1057 467 1074 q 486 1016 484 1040 q 482 966 488 993 q 469 928 478 947 q 449 895 460 910 q 424 868 437 880 q 395 850 410 856 q 433 806 424 836 q 432 729 441 776 z "},"´":{"ha":221,"x_min":253,"x_max":345,"o":"m 290 802 l 253 972 l 326 972 l 345 802 l 290 802 z "},"µ":{"ha":554,"x_min":-5,"x_max":689,"o":"m 231 0 q 201 4 215 0 q 176 20 187 9 q 155 82 149 42 l 86 -243 l -5 -243 l 228 850 l 319 850 l 216 364 q 213 317 211 339 q 225 278 216 295 q 249 252 234 262 q 283 243 264 243 l 468 243 l 597 850 l 689 850 l 509 0 l 231 0 z "},"μ":{"ha":554,"x_min":-5,"x_max":689,"o":"m 231 0 q 201 4 215 0 q 176 20 187 9 q 155 82 149 42 l 86 -243 l -5 -243 l 228 850 l 319 850 l 216 364 q 213 317 211 339 q 225 278 216 295 q 249 252 234 262 q 283 243 264 243 l 468 243 l 597 850 l 689 850 l 509 0 l 231 0 z "},"¶":{"ha":646,"x_min":165,"x_max":807,"o":"m 689 850 l 456 -243 l 364 -243 l 597 850 l 504 850 l 271 -243 l 179 -243 l 321 425 q 254 444 282 425 q 207 497 226 462 q 189 668 165 568 l 201 729 q 293 900 222 829 q 437 972 361 972 l 807 972 l 782 850 l 689 850 z "},"·":{"ha":221,"x_min":119,"x_max":283,"o":"m 119 340 l 154 510 l 283 510 l 248 340 l 119 340 z "},"¸":{"ha":240,"x_min":-5,"x_max":170,"o":"m 163 -146 q 149 -184 159 -166 q 126 -215 139 -201 q 98 -235 113 -228 q 68 -243 83 -243 l -5 -243 l 12 -207 l 77 -207 q 96 -202 86 -207 q 113 -189 105 -197 q 127 -169 121 -180 q 135 -146 133 -158 q 131 -103 140 -121 q 102 -85 121 -85 l 56 -85 l 97 24 l 153 24 l 123 -52 q 158 -86 147 -59 q 163 -146 170 -113 z "},"¹":{"ha":184,"x_min":175,"x_max":347,"o":"m 175 607 l 201 729 l 225 729 l 277 972 l 253 972 l 278 1093 l 347 1093 l 271 729 l 294 729 l 267 607 l 175 607 z "},"º":{"ha":439,"x_min":148,"x_max":568,"o":"m 471 699 q 473 734 475 718 q 465 763 471 751 q 448 783 458 776 q 422 790 437 790 l 353 790 q 325 783 338 790 q 298 763 311 776 q 277 734 286 751 q 264 699 268 718 l 244 607 q 243 572 241 589 q 252 544 245 556 q 269 524 258 531 q 294 517 280 517 l 364 517 q 393 524 378 517 q 419 543 407 530 q 439 571 431 555 q 452 607 448 587 l 471 699 m 501 517 q 477 446 493 478 q 435 386 460 414 q 325 335 384 335 l 256 335 q 170 387 199 335 q 151 446 155 414 q 155 517 148 479 l 214 790 q 239 860 222 828 q 282 918 256 892 q 335 959 307 945 q 392 972 363 972 l 461 972 q 549 918 519 972 q 566 860 564 892 q 559 790 568 828 l 501 517 z "},"»":{"ha":642,"x_min":62,"x_max":659,"o":"m 86 0 l 62 82 l 293 248 l 134 412 l 191 493 l 382 296 l 361 199 l 86 0 m 364 0 l 340 82 l 570 248 l 411 412 l 468 493 l 659 296 l 637 199 l 364 0 z "},"¼":{"ha":461,"x_min":142,"x_max":526,"o":"m 286 0 l 301 68 l 153 68 l 200 292 l 237 292 l 210 165 l 322 165 l 370 389 l 406 389 l 323 0 l 286 0 m 142 450 l 157 522 l 526 522 l 511 450 l 142 450 m 318 583 l 339 681 l 357 681 l 399 875 l 380 875 l 401 972 l 456 972 l 393 681 l 412 681 l 392 583 l 318 583 z "},"½":{"ha":461,"x_min":139,"x_max":526,"o":"m 139 0 l 164 121 q 178 159 169 141 q 201 190 188 176 q 229 211 214 203 q 258 218 243 218 l 286 218 q 309 228 301 218 q 322 256 317 237 q 302 292 328 292 l 200 292 l 221 389 l 332 389 q 358 381 347 389 q 377 360 370 373 q 387 329 385 347 q 385 292 389 311 l 380 267 q 366 229 376 247 q 343 198 356 212 q 315 177 330 185 q 286 170 300 170 l 239 170 q 203 134 211 170 l 196 97 l 345 97 l 323 0 l 139 0 m 142 450 l 157 522 l 526 522 l 511 450 l 142 450 m 318 583 l 339 681 l 357 681 l 399 875 l 380 875 l 401 972 l 456 972 l 393 681 l 412 681 l 392 583 l 318 583 z "},"¾":{"ha":461,"x_min":142,"x_max":526,"o":"m 286 0 l 301 68 l 153 68 l 200 292 l 237 292 l 210 165 l 322 165 l 370 389 l 406 389 l 323 0 l 286 0 m 142 450 l 157 522 l 526 522 l 511 450 l 142 450 m 468 681 q 454 643 464 661 q 431 611 444 625 q 403 591 418 598 q 374 583 388 583 l 262 583 l 283 681 l 385 681 q 419 717 411 681 q 401 753 428 753 l 335 753 l 345 802 l 411 802 q 446 839 437 802 q 445 866 450 857 q 427 875 440 875 l 325 875 l 345 972 l 456 972 q 483 965 471 972 q 502 944 494 957 q 511 912 509 930 q 510 875 513 895 l 509 869 q 484 811 501 833 q 437 778 467 788 q 468 681 485 755 z "},"¿":{"ha":498,"x_min":52,"x_max":587,"o":"m 205 -122 q 138 -104 167 -122 q 90 -50 109 -85 q 72 121 52 20 q 105 215 83 172 q 163 293 128 257 q 309 364 231 364 l 382 364 l 432 558 l 489 558 l 439 243 l 283 243 q 264 238 273 243 q 246 225 254 233 q 232 205 238 216 q 224 182 227 194 q 222 159 221 170 q 228 139 223 148 q 239 126 232 131 q 257 121 247 121 l 478 121 l 427 -122 l 205 -122 m 422 681 l 458 850 l 587 850 l 550 681 l 422 681 z "},"À":{"ha":554,"x_min":46,"x_max":673,"o":"m 545 607 q 547 655 549 633 q 537 694 545 677 q 514 720 528 710 q 479 729 499 729 l 386 729 q 348 720 367 729 q 313 693 329 710 q 285 654 297 677 q 267 607 273 632 l 216 364 l 493 364 l 545 607 m 415 0 l 468 243 l 191 243 l 139 0 l 46 0 l 201 729 q 293 900 222 829 q 437 972 361 972 l 529 972 q 597 955 569 972 q 646 901 626 937 q 669 823 665 866 q 664 729 673 781 l 509 0 l 415 0 m 471 1044 l 433 1215 l 509 1215 l 528 1044 l 471 1044 z "},"Á":{"ha":554,"x_min":46,"x_max":673,"o":"m 545 607 q 547 655 549 633 q 537 694 545 677 q 514 720 528 710 q 479 729 499 729 l 386 729 q 348 720 367 729 q 313 693 329 710 q 285 654 297 677 q 267 607 273 632 l 216 364 l 493 364 l 545 607 m 415 0 l 468 243 l 191 243 l 139 0 l 46 0 l 201 729 q 293 900 222 829 q 437 972 361 972 l 529 972 q 597 955 569 972 q 646 901 626 937 q 669 823 665 866 q 664 729 673 781 l 509 0 l 415 0 m 528 1044 l 471 1044 l 564 1215 l 637 1215 l 528 1044 z "},"Â":{"ha":554,"x_min":46,"x_max":673,"o":"m 545 607 q 547 655 549 633 q 537 694 545 677 q 514 720 528 710 q 479 729 499 729 l 386 729 q 348 720 367 729 q 313 693 329 710 q 285 654 297 677 q 267 607 273 632 l 216 364 l 493 364 l 545 607 m 415 0 l 468 243 l 191 243 l 139 0 l 46 0 l 201 729 q 293 900 222 829 q 437 972 361 972 l 529 972 q 597 955 569 972 q 646 901 626 937 q 669 823 665 866 q 664 729 673 781 l 509 0 l 415 0 m 555 1044 l 521 1147 l 443 1044 l 389 1044 l 500 1215 l 572 1215 l 610 1044 l 555 1044 z "},"Ã":{"ha":554,"x_min":46,"x_max":673,"o":"m 545 607 q 547 655 549 633 q 537 694 545 677 q 514 720 528 710 q 479 729 499 729 l 386 729 q 348 720 367 729 q 313 693 329 710 q 285 654 297 677 q 267 607 273 632 l 216 364 l 493 364 l 545 607 m 415 0 l 468 243 l 191 243 l 139 0 l 46 0 l 201 729 q 293 900 222 829 q 437 972 361 972 l 529 972 q 597 955 569 972 q 646 901 626 937 q 669 823 665 866 q 664 729 673 781 l 509 0 l 415 0 m 647 1093 q 598 1057 624 1069 q 546 1044 572 1044 q 526 1051 536 1044 q 504 1069 515 1058 q 482 1087 494 1081 q 463 1093 471 1093 q 361 1044 409 1093 l 382 1141 q 432 1179 406 1167 q 484 1190 458 1190 q 503 1184 492 1190 q 525 1166 513 1178 q 547 1148 536 1155 q 567 1141 557 1141 q 668 1190 619 1141 l 647 1093 z "},"Ä":{"ha":554,"x_min":46,"x_max":673,"o":"m 545 607 q 547 655 549 633 q 537 694 545 677 q 514 720 528 710 q 479 729 499 729 l 386 729 q 348 720 367 729 q 313 693 329 710 q 285 654 297 677 q 267 607 273 632 l 216 364 l 493 364 l 545 607 m 415 0 l 468 243 l 191 243 l 139 0 l 46 0 l 201 729 q 293 900 222 829 q 437 972 361 972 l 529 972 q 597 955 569 972 q 646 901 626 937 q 669 823 665 866 q 664 729 673 781 l 509 0 l 415 0 m 361 1044 l 386 1166 l 479 1166 l 453 1044 l 361 1044 m 546 1044 l 571 1166 l 664 1166 l 637 1044 l 546 1044 z "},"Å":{"ha":554,"x_min":46,"x_max":672,"o":"m 545 607 q 547 655 549 633 q 537 694 545 677 q 514 720 528 710 q 479 729 499 729 l 386 729 q 348 720 367 729 q 313 693 329 710 q 285 654 297 677 q 267 607 273 632 l 216 364 l 493 364 l 545 607 m 578 1069 q 580 1107 582 1089 q 571 1138 578 1124 q 552 1159 564 1151 q 525 1166 540 1166 q 495 1159 510 1166 q 467 1138 479 1151 q 444 1107 454 1124 q 431 1069 435 1089 q 429 1031 427 1049 q 438 1001 431 1014 q 456 980 445 987 q 484 972 468 972 q 514 980 498 972 q 542 1001 529 987 q 565 1031 555 1014 q 578 1069 574 1049 m 415 0 l 468 243 l 191 243 l 139 0 l 46 0 l 201 729 q 229 812 211 773 q 277 885 247 851 q 403 968 335 952 q 389 1015 391 989 q 393 1069 387 1040 q 447 1173 408 1131 q 490 1204 467 1193 q 536 1215 513 1215 q 576 1204 559 1215 q 606 1173 593 1193 q 619 1126 616 1152 q 615 1069 622 1100 q 595 1014 609 1039 q 562 968 582 989 q 654 885 627 951 q 670 812 669 851 q 664 729 672 774 l 509 0 l 415 0 z "},"Æ":{"ha":785,"x_min":46,"x_max":946,"o":"m 545 607 q 547 655 549 633 q 537 694 545 677 q 514 720 528 710 q 479 729 499 729 l 386 729 q 348 720 367 729 q 313 693 329 710 q 285 654 297 677 q 267 607 273 632 l 216 364 l 493 364 l 545 607 m 600 0 q 484 71 524 0 q 468 243 446 142 l 191 243 l 139 0 l 46 0 l 201 729 q 293 900 222 829 q 437 972 361 972 l 493 972 q 607 904 568 972 l 623 972 l 946 972 l 895 729 l 664 729 l 625 547 l 762 547 l 736 425 l 597 425 l 586 364 q 583 316 581 338 q 593 278 585 294 q 617 252 602 262 q 653 243 633 243 l 791 243 l 739 0 l 600 0 z "},"Ç":{"ha":554,"x_min":76,"x_max":714,"o":"m 336 0 l 318 -52 q 352 -86 341 -59 q 355 -146 363 -113 q 342 -184 351 -166 q 320 -215 332 -201 q 292 -235 307 -228 q 261 -243 277 -243 l 189 -243 l 205 -207 l 269 -207 q 289 -202 279 -207 q 306 -189 298 -197 q 320 -169 314 -180 q 328 -146 326 -158 q 324 -103 333 -121 q 296 -85 315 -85 l 249 -85 l 283 0 l 231 0 q 117 72 152 0 q 98 243 76 144 l 201 729 q 293 900 222 829 q 437 972 361 972 l 714 972 l 664 729 l 386 729 q 348 720 367 729 q 313 693 329 710 q 285 654 297 677 q 267 607 273 632 l 216 364 q 213 317 211 339 q 225 278 216 295 q 249 252 234 262 q 283 243 264 243 l 559 243 l 509 0 l 336 0 z "},"È":{"ha":461,"x_min":76,"x_max":623,"o":"m 231 0 q 114 71 154 0 q 98 243 76 142 l 253 972 l 623 972 l 571 729 l 294 729 l 256 547 l 440 547 l 412 425 l 228 425 l 216 364 q 213 316 211 338 q 224 278 215 294 q 248 252 233 262 q 283 243 263 243 l 468 243 l 415 0 l 231 0 m 425 1044 l 387 1215 l 461 1215 l 481 1044 l 425 1044 z "},"É":{"ha":461,"x_min":76,"x_max":623,"o":"m 231 0 q 114 71 154 0 q 98 243 76 142 l 253 972 l 623 972 l 571 729 l 294 729 l 256 547 l 440 547 l 412 425 l 228 425 l 216 364 q 213 316 211 338 q 224 278 215 294 q 248 252 233 262 q 283 243 263 243 l 468 243 l 415 0 l 231 0 m 481 1044 l 425 1044 l 518 1215 l 591 1215 l 481 1044 z "},"Ê":{"ha":461,"x_min":76,"x_max":623,"o":"m 231 0 q 114 71 154 0 q 98 243 76 142 l 253 972 l 623 972 l 571 729 l 294 729 l 256 547 l 440 547 l 412 425 l 228 425 l 216 364 q 213 316 211 338 q 224 278 215 294 q 248 252 233 262 q 283 243 263 243 l 468 243 l 415 0 l 231 0 m 510 1044 l 475 1147 l 397 1044 l 343 1044 l 453 1215 l 526 1215 l 564 1044 l 510 1044 z "},"Ë":{"ha":461,"x_min":76,"x_max":623,"o":"m 231 0 q 114 71 154 0 q 98 243 76 142 l 253 972 l 623 972 l 571 729 l 294 729 l 256 547 l 440 547 l 412 425 l 228 425 l 216 364 q 213 316 211 338 q 224 278 215 294 q 248 252 233 262 q 283 243 263 243 l 468 243 l 415 0 l 231 0 m 315 1044 l 340 1166 l 432 1166 l 407 1044 l 315 1044 m 500 1044 l 525 1166 l 616 1166 l 591 1044 l 500 1044 z "},"Ì":{"ha":277,"x_min":46,"x_max":437,"o":"m 46 0 l 98 243 l 144 243 l 248 729 l 201 729 l 253 972 l 437 972 l 386 729 l 340 729 l 237 243 l 283 243 l 231 0 l 46 0 m 334 1044 l 296 1215 l 370 1215 l 389 1044 l 334 1044 z "},"Í":{"ha":277,"x_min":46,"x_max":500,"o":"m 46 0 l 98 243 l 144 243 l 248 729 l 201 729 l 253 972 l 437 972 l 386 729 l 340 729 l 237 243 l 283 243 l 231 0 l 46 0 m 389 1044 l 334 1044 l 425 1215 l 500 1215 l 389 1044 z "},"Î":{"ha":277,"x_min":46,"x_max":471,"o":"m 46 0 l 98 243 l 144 243 l 248 729 l 201 729 l 253 972 l 437 972 l 386 729 l 340 729 l 237 243 l 283 243 l 231 0 l 46 0 m 416 1044 l 383 1147 l 306 1044 l 250 1044 l 361 1215 l 433 1215 l 471 1044 l 416 1044 z "},"Ï":{"ha":277,"x_min":46,"x_max":525,"o":"m 46 0 l 98 243 l 144 243 l 248 729 l 201 729 l 253 972 l 437 972 l 386 729 l 340 729 l 237 243 l 283 243 l 231 0 l 46 0 m 222 1044 l 248 1166 l 340 1166 l 315 1044 l 222 1044 m 407 1044 l 432 1166 l 525 1166 l 500 1044 l 407 1044 z "},"Ð":{"ha":624,"x_min":113,"x_max":743,"o":"m 614 607 q 617 654 619 632 q 606 693 614 677 q 582 720 597 710 q 549 729 568 729 l 364 729 l 325 547 l 510 547 l 482 425 l 297 425 l 260 243 l 444 243 q 484 252 465 243 q 518 278 503 262 q 546 316 534 294 q 562 364 557 338 l 614 607 m 629 243 q 596 149 618 192 q 539 71 574 106 q 468 18 503 35 q 393 0 432 0 l 115 0 l 205 425 l 113 425 l 140 547 l 232 547 l 322 972 l 599 972 q 714 900 675 972 q 738 822 734 864 q 733 729 743 780 l 629 243 z "},"Ñ":{"ha":554,"x_min":46,"x_max":673,"o":"m 415 0 l 545 607 q 547 655 549 633 q 537 694 545 677 q 514 720 528 710 q 479 729 499 729 l 386 729 q 348 720 367 729 q 313 693 329 710 q 285 654 297 677 q 267 607 273 632 l 139 0 l 46 0 l 201 729 q 292 900 222 830 q 362 954 326 936 q 437 972 399 972 l 529 972 q 597 955 569 972 q 646 901 626 937 q 669 823 665 866 q 664 729 673 781 l 509 0 l 415 0 m 647 1093 q 598 1057 624 1069 q 546 1044 572 1044 q 526 1051 536 1044 q 504 1069 515 1058 q 482 1087 494 1081 q 463 1093 471 1093 q 361 1044 409 1093 l 382 1141 q 432 1179 406 1167 q 484 1190 458 1190 q 503 1184 492 1190 q 525 1166 513 1178 q 547 1148 536 1155 q 567 1141 557 1141 q 668 1190 619 1141 l 647 1093 z "},"Ò":{"ha":554,"x_min":76,"x_max":682,"o":"m 545 607 q 547 654 549 632 q 536 693 545 677 q 512 720 527 710 q 479 729 498 729 l 386 729 q 348 720 367 729 q 313 693 329 710 q 285 654 297 677 q 267 607 273 632 l 216 364 q 213 317 211 339 q 225 278 216 295 q 249 252 234 262 q 283 243 264 243 l 375 243 q 414 252 395 243 q 449 278 433 262 q 476 316 465 294 q 493 364 488 338 l 545 607 m 559 243 q 527 149 549 192 q 469 71 505 106 q 398 18 434 35 q 323 0 362 0 l 231 0 q 114 71 154 0 q 98 243 76 142 l 201 729 q 292 900 222 830 q 362 954 326 936 q 437 972 399 972 l 529 972 q 646 900 605 972 q 664 729 682 830 l 559 243 m 471 1044 l 433 1215 l 509 1215 l 528 1044 l 471 1044 z "},"Ó":{"ha":554,"x_min":76,"x_max":682,"o":"m 545 607 q 547 654 549 632 q 536 693 545 677 q 512 720 527 710 q 479 729 498 729 l 386 729 q 348 720 367 729 q 313 693 329 710 q 285 654 297 677 q 267 607 273 632 l 216 364 q 213 317 211 339 q 225 278 216 295 q 249 252 234 262 q 283 243 264 243 l 375 243 q 414 252 395 243 q 449 278 433 262 q 476 316 465 294 q 493 364 488 338 l 545 607 m 559 243 q 527 149 549 192 q 469 71 505 106 q 398 18 434 35 q 323 0 362 0 l 231 0 q 114 71 154 0 q 98 243 76 142 l 201 729 q 292 900 222 830 q 362 954 326 936 q 437 972 399 972 l 529 972 q 646 900 605 972 q 664 729 682 830 l 559 243 m 528 1044 l 471 1044 l 564 1215 l 637 1215 l 528 1044 z "},"Ô":{"ha":554,"x_min":76,"x_max":682,"o":"m 545 607 q 547 654 549 632 q 536 693 545 677 q 512 720 527 710 q 479 729 498 729 l 386 729 q 348 720 367 729 q 313 693 329 710 q 285 654 297 677 q 267 607 273 632 l 216 364 q 213 317 211 339 q 225 278 216 295 q 249 252 234 262 q 283 243 264 243 l 375 243 q 414 252 395 243 q 449 278 433 262 q 476 316 465 294 q 493 364 488 338 l 545 607 m 559 243 q 527 149 549 192 q 469 71 505 106 q 398 18 434 35 q 323 0 362 0 l 231 0 q 114 71 154 0 q 98 243 76 142 l 201 729 q 292 900 222 830 q 362 954 326 936 q 437 972 399 972 l 529 972 q 646 900 605 972 q 664 729 682 830 l 559 243 m 555 1044 l 521 1147 l 443 1044 l 389 1044 l 500 1215 l 572 1215 l 610 1044 l 555 1044 z "},"Õ":{"ha":554,"x_min":76,"x_max":682,"o":"m 545 607 q 547 654 549 632 q 536 693 545 677 q 512 720 527 710 q 479 729 498 729 l 386 729 q 348 720 367 729 q 313 693 329 710 q 285 654 297 677 q 267 607 273 632 l 216 364 q 213 317 211 339 q 225 278 216 295 q 249 252 234 262 q 283 243 264 243 l 375 243 q 414 252 395 243 q 449 278 433 262 q 476 316 465 294 q 493 364 488 338 l 545 607 m 559 243 q 527 149 549 192 q 469 71 505 106 q 398 18 434 35 q 323 0 362 0 l 231 0 q 114 71 154 0 q 98 243 76 142 l 201 729 q 292 900 222 830 q 362 954 326 936 q 437 972 399 972 l 529 972 q 646 900 605 972 q 664 729 682 830 l 559 243 m 647 1093 q 598 1057 624 1069 q 546 1044 572 1044 q 526 1051 536 1044 q 504 1069 515 1058 q 482 1087 494 1081 q 463 1093 471 1093 q 361 1044 409 1093 l 382 1141 q 432 1179 406 1167 q 484 1190 458 1190 q 503 1184 492 1190 q 525 1166 513 1178 q 547 1148 536 1155 q 567 1141 557 1141 q 668 1190 619 1141 l 647 1093 z "},"Ö":{"ha":554,"x_min":76,"x_max":682,"o":"m 545 607 q 547 654 549 632 q 536 693 545 677 q 512 720 527 710 q 479 729 498 729 l 386 729 q 348 720 367 729 q 313 693 329 710 q 285 654 297 677 q 267 607 273 632 l 216 364 q 213 317 211 339 q 225 278 216 295 q 249 252 234 262 q 283 243 264 243 l 375 243 q 414 252 395 243 q 449 278 433 262 q 476 316 465 294 q 493 364 488 338 l 545 607 m 559 243 q 527 149 549 192 q 469 71 505 106 q 398 18 434 35 q 323 0 362 0 l 231 0 q 114 71 154 0 q 98 243 76 142 l 201 729 q 292 900 222 830 q 362 954 326 936 q 437 972 399 972 l 529 972 q 646 900 605 972 q 664 729 682 830 l 559 243 m 361 1044 l 386 1166 l 479 1166 l 453 1044 l 361 1044 m 546 1044 l 571 1166 l 664 1166 l 637 1044 l 546 1044 z "},"×":{"ha":432,"x_min":103,"x_max":509,"o":"m 376 201 l 292 355 l 142 201 l 103 271 l 254 425 l 170 579 l 237 648 l 322 494 l 472 648 l 509 579 l 358 425 l 441 271 l 376 201 z "},"Ø":{"ha":554,"x_min":7,"x_max":753,"o":"m 545 607 q 545 665 551 637 l 237 262 q 283 243 256 243 l 375 243 q 414 252 395 243 q 449 278 433 262 q 476 316 465 294 q 493 364 488 338 l 545 607 m 522 710 q 502 725 513 720 q 479 729 492 729 l 386 729 q 348 720 367 729 q 313 693 329 710 q 285 654 297 677 q 267 607 273 632 l 216 364 q 216 307 208 334 l 522 710 m 668 825 q 670 778 671 802 q 664 729 668 754 l 559 243 q 527 149 549 192 q 469 71 505 106 q 398 18 434 35 q 323 0 362 0 l 231 0 q 106 92 143 0 l 36 0 l 7 36 l 92 147 q 91 194 90 170 q 98 243 93 217 l 201 729 q 292 900 222 830 q 362 954 326 936 q 437 972 399 972 l 529 972 q 656 880 616 972 l 724 972 l 753 936 l 668 825 z "},"Ù":{"ha":554,"x_min":76,"x_max":714,"o":"m 559 243 q 527 149 549 192 q 469 71 505 106 q 398 18 434 35 q 323 0 362 0 l 231 0 q 114 71 154 0 q 98 243 76 142 l 253 972 l 345 972 l 216 364 q 213 317 211 339 q 225 278 216 295 q 249 252 234 262 q 283 243 264 243 l 375 243 q 414 252 395 243 q 449 278 433 262 q 476 316 465 294 q 493 364 488 338 l 623 972 l 714 972 l 559 243 m 471 1044 l 433 1215 l 509 1215 l 528 1044 l 471 1044 z "},"Ú":{"ha":554,"x_min":76,"x_max":714,"o":"m 559 243 q 527 149 549 192 q 469 71 505 106 q 398 18 434 35 q 323 0 362 0 l 231 0 q 114 71 154 0 q 98 243 76 142 l 253 972 l 345 972 l 216 364 q 213 317 211 339 q 225 278 216 295 q 249 252 234 262 q 283 243 264 243 l 375 243 q 414 252 395 243 q 449 278 433 262 q 476 316 465 294 q 493 364 488 338 l 623 972 l 714 972 l 559 243 m 528 1044 l 471 1044 l 564 1215 l 637 1215 l 528 1044 z "},"Û":{"ha":554,"x_min":76,"x_max":714,"o":"m 559 243 q 527 149 549 192 q 469 71 505 106 q 398 18 434 35 q 323 0 362 0 l 231 0 q 114 71 154 0 q 98 243 76 142 l 253 972 l 345 972 l 216 364 q 213 317 211 339 q 225 278 216 295 q 249 252 234 262 q 283 243 264 243 l 375 243 q 414 252 395 243 q 449 278 433 262 q 476 316 465 294 q 493 364 488 338 l 623 972 l 714 972 l 559 243 m 555 1044 l 521 1147 l 443 1044 l 389 1044 l 500 1215 l 572 1215 l 610 1044 l 555 1044 z "},"Ü":{"ha":554,"x_min":76,"x_max":714,"o":"m 559 243 q 527 149 549 192 q 469 71 505 106 q 398 18 434 35 q 323 0 362 0 l 231 0 q 114 71 154 0 q 98 243 76 142 l 253 972 l 345 972 l 216 364 q 213 317 211 339 q 225 278 216 295 q 249 252 234 262 q 283 243 264 243 l 375 243 q 414 252 395 243 q 449 278 433 262 q 476 316 465 294 q 493 364 488 338 l 623 972 l 714 972 l 559 243 m 361 1044 l 386 1166 l 479 1166 l 453 1044 l 361 1044 m 546 1044 l 571 1166 l 664 1166 l 637 1044 l 546 1044 z "},"Ý":{"ha":554,"x_min":149,"x_max":714,"o":"m 623 534 q 589 441 611 484 q 530 363 566 398 q 460 309 496 327 q 385 292 425 292 l 323 0 l 231 0 l 293 292 q 178 363 215 292 q 154 441 158 398 q 160 534 149 484 l 253 972 l 345 972 l 278 656 q 275 609 273 631 q 287 570 278 587 q 311 544 296 553 q 345 534 326 534 l 437 534 q 476 544 457 534 q 511 570 495 553 q 538 608 526 586 q 555 656 550 630 l 623 972 l 714 972 l 623 534 m 528 1044 l 471 1044 l 564 1215 l 637 1215 l 528 1044 z "},"Þ":{"ha":554,"x_min":46,"x_max":640,"o":"m 460 425 q 462 460 464 444 q 453 489 460 477 q 435 509 446 502 q 410 517 424 517 l 248 517 l 208 335 l 371 335 q 399 342 385 335 q 426 361 414 349 q 447 390 438 374 q 460 425 456 406 m 606 456 q 514 285 582 355 q 443 231 479 249 q 368 212 407 212 l 183 212 l 139 0 l 46 0 l 253 972 l 345 972 l 300 760 l 485 760 q 552 741 524 760 q 599 688 581 723 q 616 517 640 617 l 606 456 z "},"ß":{"ha":554,"x_min":21,"x_max":682,"o":"m 559 243 q 469 72 539 144 q 323 0 399 0 l 231 0 l 283 243 l 353 243 q 381 250 367 243 q 407 270 395 258 q 428 299 419 283 q 440 335 437 316 q 443 370 444 353 q 434 398 441 386 q 415 418 427 410 q 390 425 404 425 l 321 425 l 347 547 l 416 547 q 445 554 431 547 q 471 574 459 562 q 492 602 483 586 q 505 637 501 618 q 507 673 509 656 q 498 702 505 690 q 481 722 492 715 q 456 729 470 729 l 364 729 q 335 722 349 729 q 309 702 321 715 q 288 673 296 690 q 275 637 279 656 l 113 -122 l 21 -122 l 201 729 q 234 823 212 781 q 292 901 256 866 q 362 955 326 937 q 437 972 397 972 l 529 972 q 646 900 605 972 q 664 729 682 830 l 660 717 q 635 642 651 678 q 596 575 620 606 q 543 520 570 543 q 484 486 515 498 q 529 450 511 473 q 558 394 548 426 q 568 323 568 362 q 559 243 568 285 z "},"à":{"ha":554,"x_min":76,"x_max":659,"o":"m 519 486 q 522 534 524 512 q 511 572 519 556 q 487 598 502 589 q 452 607 472 607 l 359 607 q 322 597 340 607 q 287 572 303 588 q 259 533 271 555 q 241 486 248 511 l 216 364 q 213 317 211 339 q 225 278 216 295 q 249 252 234 262 q 283 243 264 243 l 375 243 q 413 252 394 243 q 448 278 432 262 q 476 317 465 295 q 493 364 488 339 l 519 486 m 415 0 l 432 82 q 385 20 424 42 q 355 4 370 9 q 323 0 339 0 l 231 0 q 117 72 152 0 q 98 243 76 144 l 175 607 q 267 779 196 708 q 412 850 335 850 l 504 850 q 572 833 544 850 q 619 781 601 817 q 636 607 659 708 l 509 0 l 415 0 m 446 924 l 407 1093 l 481 1093 l 501 924 l 446 924 z "},"á":{"ha":554,"x_min":76,"x_max":659,"o":"m 519 486 q 522 534 524 512 q 511 572 519 556 q 487 598 502 589 q 452 607 472 607 l 359 607 q 322 597 340 607 q 287 572 303 588 q 259 533 271 555 q 241 486 248 511 l 216 364 q 213 317 211 339 q 225 278 216 295 q 249 252 234 262 q 283 243 264 243 l 375 243 q 413 252 394 243 q 448 278 432 262 q 476 317 465 295 q 493 364 488 339 l 519 486 m 415 0 l 432 82 q 385 20 424 42 q 355 4 370 9 q 323 0 339 0 l 231 0 q 117 72 152 0 q 98 243 76 144 l 175 607 q 267 779 196 708 q 412 850 335 850 l 504 850 q 572 833 544 850 q 619 781 601 817 q 636 607 659 708 l 509 0 l 415 0 m 501 924 l 446 924 l 538 1093 l 611 1093 l 501 924 z "},"â":{"ha":554,"x_min":76,"x_max":659,"o":"m 519 486 q 522 534 524 512 q 511 572 519 556 q 487 598 502 589 q 452 607 472 607 l 359 607 q 322 597 340 607 q 287 572 303 588 q 259 533 271 555 q 241 486 248 511 l 216 364 q 213 317 211 339 q 225 278 216 295 q 249 252 234 262 q 283 243 264 243 l 375 243 q 413 252 394 243 q 448 278 432 262 q 476 317 465 295 q 493 364 488 339 l 519 486 m 415 0 l 432 82 q 385 20 424 42 q 355 4 370 9 q 323 0 339 0 l 231 0 q 117 72 152 0 q 98 243 76 144 l 175 607 q 267 779 196 708 q 412 850 335 850 l 504 850 q 572 833 544 850 q 619 781 601 817 q 636 607 659 708 l 509 0 l 415 0 m 529 924 l 494 1025 l 418 924 l 364 924 l 472 1093 l 546 1093 l 585 924 l 529 924 z "},"ã":{"ha":554,"x_min":76,"x_max":659,"o":"m 519 486 q 522 534 524 512 q 511 572 519 556 q 487 598 502 589 q 452 607 472 607 l 359 607 q 322 597 340 607 q 287 572 303 588 q 259 533 271 555 q 241 486 248 511 l 216 364 q 213 317 211 339 q 225 278 216 295 q 249 252 234 262 q 283 243 264 243 l 375 243 q 413 252 394 243 q 448 278 432 262 q 476 317 465 295 q 493 364 488 339 l 519 486 m 415 0 l 432 82 q 385 20 424 42 q 355 4 370 9 q 323 0 339 0 l 231 0 q 117 72 152 0 q 98 243 76 144 l 175 607 q 267 779 196 708 q 412 850 335 850 l 504 850 q 572 833 544 850 q 619 781 601 817 q 636 607 659 708 l 509 0 l 415 0 m 623 972 q 572 935 597 947 q 519 924 547 924 q 500 930 511 924 q 479 947 490 936 q 437 972 456 972 q 385 961 412 972 q 335 924 359 949 l 355 1021 q 405 1058 379 1046 q 458 1069 431 1069 q 477 1063 467 1069 q 500 1044 488 1057 q 541 1021 522 1021 q 643 1069 594 1021 l 623 972 z "},"ä":{"ha":554,"x_min":76,"x_max":659,"o":"m 519 486 q 522 534 524 512 q 511 572 519 556 q 487 598 502 589 q 452 607 472 607 l 359 607 q 322 597 340 607 q 287 572 303 588 q 259 533 271 555 q 241 486 248 511 l 216 364 q 213 317 211 339 q 225 278 216 295 q 249 252 234 262 q 283 243 264 243 l 375 243 q 413 252 394 243 q 448 278 432 262 q 476 317 465 295 q 493 364 488 339 l 519 486 m 415 0 l 432 82 q 385 20 424 42 q 355 4 370 9 q 323 0 339 0 l 231 0 q 117 72 152 0 q 98 243 76 144 l 175 607 q 267 779 196 708 q 412 850 335 850 l 504 850 q 572 833 544 850 q 619 781 601 817 q 636 607 659 708 l 509 0 l 415 0 m 335 924 l 361 1044 l 453 1044 l 428 924 l 335 924 m 519 924 l 546 1044 l 637 1044 l 612 924 l 519 924 z "},"å":{"ha":554,"x_min":76,"x_max":659,"o":"m 519 486 q 522 534 524 512 q 511 572 519 556 q 487 598 502 589 q 452 607 472 607 l 359 607 q 322 597 340 607 q 287 572 303 588 q 259 533 271 555 q 241 486 248 511 l 216 364 q 213 317 211 339 q 225 278 216 295 q 249 252 234 262 q 283 243 264 243 l 375 243 q 413 252 394 243 q 448 278 432 262 q 476 317 465 295 q 493 364 488 339 l 519 486 m 578 1069 q 580 1107 582 1089 q 571 1138 578 1124 q 552 1159 564 1151 q 525 1166 540 1166 q 495 1159 510 1166 q 467 1138 479 1151 q 444 1107 454 1124 q 431 1069 435 1089 q 429 1031 427 1049 q 438 1001 431 1014 q 456 980 445 987 q 484 972 468 972 q 514 980 498 972 q 542 1001 529 987 q 565 1031 555 1014 q 578 1069 574 1049 m 415 0 l 432 82 q 385 20 424 42 q 355 4 370 9 q 323 0 339 0 l 231 0 q 117 72 152 0 q 98 243 76 144 l 175 607 q 267 779 196 708 q 412 850 335 850 l 504 850 q 572 833 544 850 q 619 781 601 817 q 636 607 659 708 l 509 0 l 415 0 m 615 1069 q 595 1013 609 1039 q 561 966 581 987 q 473 924 520 924 q 432 934 450 924 q 403 966 414 945 q 389 1013 392 987 q 393 1069 387 1039 q 447 1173 408 1131 q 490 1204 467 1193 q 536 1215 513 1215 q 576 1204 559 1215 q 606 1173 593 1193 q 619 1126 616 1152 q 615 1069 622 1100 z "},"æ":{"ha":831,"x_min":76,"x_max":966,"o":"m 519 486 q 522 534 524 512 q 511 572 519 556 q 487 598 502 589 q 452 607 472 607 l 359 607 q 322 597 340 607 q 287 572 303 588 q 259 533 271 555 q 241 486 248 511 l 216 364 q 213 317 211 339 q 225 278 216 295 q 249 252 234 262 q 283 243 264 243 l 375 243 q 413 252 394 243 q 448 278 432 262 q 476 317 465 295 q 493 364 488 339 l 519 486 m 636 0 q 522 71 562 0 l 509 0 l 415 0 l 432 82 q 385 20 424 42 q 355 4 370 9 q 323 0 339 0 l 231 0 q 117 72 152 0 q 98 243 76 144 l 175 607 q 267 779 196 708 q 412 850 335 850 l 468 850 q 523 838 498 850 q 566 805 548 826 q 595 753 585 783 q 607 685 606 722 q 647 751 623 722 q 700 804 671 781 q 818 850 758 850 l 966 850 l 914 607 l 729 607 q 691 597 709 607 q 656 572 672 588 q 629 533 641 555 q 611 486 617 511 l 796 486 l 771 364 l 586 364 q 583 317 581 339 q 594 278 585 295 q 618 252 604 262 q 653 243 633 243 l 838 243 l 785 0 l 636 0 z "},"ç":{"ha":554,"x_min":76,"x_max":689,"o":"m 336 0 l 318 -52 q 352 -86 341 -59 q 355 -146 363 -113 q 342 -184 351 -166 q 320 -215 332 -201 q 292 -235 307 -228 q 261 -243 277 -243 l 189 -243 l 205 -207 l 269 -207 q 289 -202 279 -207 q 306 -189 298 -197 q 320 -169 314 -180 q 328 -146 326 -158 q 324 -103 333 -121 q 296 -85 315 -85 l 249 -85 l 283 0 l 231 0 q 117 72 152 0 q 98 243 76 144 l 175 607 q 267 779 196 708 q 412 850 335 850 l 689 850 l 636 607 l 359 607 q 322 597 340 607 q 287 572 303 588 q 259 533 271 555 q 241 486 248 511 l 216 364 q 213 317 211 339 q 225 278 216 295 q 249 252 234 262 q 283 243 264 243 l 559 243 l 509 0 l 336 0 z "},"è":{"ha":554,"x_min":76,"x_max":689,"o":"m 231 0 q 117 72 152 0 q 98 243 76 144 l 175 607 q 267 779 196 708 q 412 850 335 850 l 689 850 l 636 607 l 359 607 q 322 597 340 607 q 287 572 303 588 q 259 533 271 555 q 241 486 248 511 l 519 486 l 493 364 l 216 364 q 213 317 211 339 q 225 278 216 295 q 249 252 234 262 q 283 243 264 243 l 559 243 l 509 0 l 231 0 m 446 924 l 407 1093 l 481 1093 l 501 924 l 446 924 z "},"é":{"ha":554,"x_min":76,"x_max":689,"o":"m 231 0 q 117 72 152 0 q 98 243 76 144 l 175 607 q 267 779 196 708 q 412 850 335 850 l 689 850 l 636 607 l 359 607 q 322 597 340 607 q 287 572 303 588 q 259 533 271 555 q 241 486 248 511 l 519 486 l 493 364 l 216 364 q 213 317 211 339 q 225 278 216 295 q 249 252 234 262 q 283 243 264 243 l 559 243 l 509 0 l 231 0 m 501 924 l 446 924 l 538 1093 l 611 1093 l 501 924 z "},"ê":{"ha":554,"x_min":76,"x_max":689,"o":"m 231 0 q 117 72 152 0 q 98 243 76 144 l 175 607 q 267 779 196 708 q 412 850 335 850 l 689 850 l 636 607 l 359 607 q 322 597 340 607 q 287 572 303 588 q 259 533 271 555 q 241 486 248 511 l 519 486 l 493 364 l 216 364 q 213 317 211 339 q 225 278 216 295 q 249 252 234 262 q 283 243 264 243 l 559 243 l 509 0 l 231 0 m 529 924 l 494 1025 l 418 924 l 364 924 l 472 1093 l 546 1093 l 585 924 l 529 924 z "},"ë":{"ha":554,"x_min":76,"x_max":689,"o":"m 231 0 q 117 72 152 0 q 98 243 76 144 l 175 607 q 267 779 196 708 q 412 850 335 850 l 689 850 l 636 607 l 359 607 q 322 597 340 607 q 287 572 303 588 q 259 533 271 555 q 241 486 248 511 l 519 486 l 493 364 l 216 364 q 213 317 211 339 q 225 278 216 295 q 249 252 234 262 q 283 243 264 243 l 559 243 l 509 0 l 231 0 m 335 924 l 361 1044 l 453 1044 l 428 924 l 335 924 m 519 924 l 546 1044 l 637 1044 l 612 924 l 519 924 z "},"ì":{"ha":184,"x_min":46,"x_max":319,"o":"m 46 0 l 228 850 l 319 850 l 139 0 l 46 0 m 261 924 l 222 1093 l 296 1093 l 317 924 l 261 924 z "},"í":{"ha":184,"x_min":46,"x_max":427,"o":"m 46 0 l 228 850 l 319 850 l 139 0 l 46 0 m 317 924 l 261 924 l 353 1093 l 427 1093 l 317 924 z "},"î":{"ha":184,"x_min":46,"x_max":400,"o":"m 46 0 l 228 850 l 319 850 l 139 0 l 46 0 m 345 924 l 310 1025 l 233 924 l 179 924 l 288 1093 l 361 1093 l 400 924 l 345 924 z "},"ï":{"ha":184,"x_min":46,"x_max":453,"o":"m 46 0 l 228 850 l 319 850 l 139 0 l 46 0 m 150 924 l 176 1044 l 268 1044 l 243 924 l 150 924 m 335 924 l 361 1044 l 453 1044 l 428 924 l 335 924 z "},"ð":{"ha":554,"x_min":76,"x_max":821,"o":"m 519 486 q 522 533 524 511 q 510 572 519 555 q 486 597 500 588 q 452 607 471 607 l 359 607 q 322 597 340 607 q 287 572 303 588 q 259 533 271 555 q 241 486 248 511 l 216 364 q 213 317 211 339 q 225 278 216 295 q 249 252 234 262 q 283 243 264 243 l 375 243 q 414 252 395 243 q 449 278 433 262 q 476 316 465 294 q 493 364 488 338 l 519 486 m 701 911 l 559 243 q 527 149 549 192 q 469 71 505 106 q 398 18 434 35 q 323 0 362 0 l 231 0 q 117 72 152 0 q 98 243 76 144 l 175 607 q 267 779 196 708 q 412 850 335 850 l 504 850 q 534 845 519 850 q 558 831 548 841 q 578 804 573 819 q 579 770 583 788 l 608 911 l 517 911 l 543 1034 l 821 1034 l 793 911 l 701 911 z "},"ñ":{"ha":554,"x_min":46,"x_max":659,"o":"m 415 0 l 519 486 q 522 534 524 512 q 511 572 519 556 q 487 598 502 589 q 452 607 472 607 l 359 607 q 322 597 340 607 q 287 572 303 588 q 259 533 271 555 q 241 486 248 511 l 139 0 l 46 0 l 175 607 q 208 701 186 658 q 265 779 230 743 q 412 850 336 850 l 504 850 q 572 833 544 850 q 619 781 601 817 q 636 607 659 708 l 509 0 l 415 0 m 623 972 q 572 935 597 947 q 519 924 547 924 q 500 930 511 924 q 479 947 490 936 q 437 972 456 972 q 385 961 412 972 q 335 924 359 949 l 355 1021 q 405 1058 379 1046 q 458 1069 431 1069 q 477 1063 467 1069 q 500 1044 488 1057 q 541 1021 522 1021 q 643 1069 594 1021 l 623 972 z "},"ò":{"ha":554,"x_min":76,"x_max":659,"o":"m 519 486 q 522 533 524 511 q 510 572 519 555 q 486 597 500 588 q 452 607 471 607 l 359 607 q 322 597 340 607 q 287 572 303 588 q 259 533 271 555 q 241 486 248 511 l 216 364 q 213 317 211 339 q 225 278 216 295 q 249 252 234 262 q 283 243 264 243 l 375 243 q 414 252 395 243 q 449 278 433 262 q 476 316 465 294 q 493 364 488 338 l 519 486 m 559 243 q 527 149 549 192 q 469 71 505 106 q 398 18 434 35 q 323 0 362 0 l 231 0 q 114 71 154 0 q 98 243 76 142 l 175 607 q 208 701 186 658 q 265 779 230 743 q 412 850 336 850 l 504 850 q 571 832 543 850 q 618 779 600 815 q 636 607 659 708 l 559 243 m 446 924 l 407 1093 l 481 1093 l 501 924 l 446 924 z "},"ó":{"ha":554,"x_min":76,"x_max":659,"o":"m 519 486 q 522 533 524 511 q 510 572 519 555 q 486 597 500 588 q 452 607 471 607 l 359 607 q 322 597 340 607 q 287 572 303 588 q 259 533 271 555 q 241 486 248 511 l 216 364 q 213 317 211 339 q 225 278 216 295 q 249 252 234 262 q 283 243 264 243 l 375 243 q 414 252 395 243 q 449 278 433 262 q 476 316 465 294 q 493 364 488 338 l 519 486 m 559 243 q 527 149 549 192 q 469 71 505 106 q 398 18 434 35 q 323 0 362 0 l 231 0 q 114 71 154 0 q 98 243 76 142 l 175 607 q 208 701 186 658 q 265 779 230 743 q 412 850 336 850 l 504 850 q 571 832 543 850 q 618 779 600 815 q 636 607 659 708 l 559 243 m 501 924 l 446 924 l 538 1093 l 611 1093 l 501 924 z "},"ô":{"ha":554,"x_min":76,"x_max":659,"o":"m 519 486 q 522 533 524 511 q 510 572 519 555 q 486 597 500 588 q 452 607 471 607 l 359 607 q 322 597 340 607 q 287 572 303 588 q 259 533 271 555 q 241 486 248 511 l 216 364 q 213 317 211 339 q 225 278 216 295 q 249 252 234 262 q 283 243 264 243 l 375 243 q 414 252 395 243 q 449 278 433 262 q 476 316 465 294 q 493 364 488 338 l 519 486 m 559 243 q 527 149 549 192 q 469 71 505 106 q 398 18 434 35 q 323 0 362 0 l 231 0 q 114 71 154 0 q 98 243 76 142 l 175 607 q 208 701 186 658 q 265 779 230 743 q 412 850 336 850 l 504 850 q 571 832 543 850 q 618 779 600 815 q 636 607 659 708 l 559 243 m 529 924 l 494 1025 l 418 924 l 364 924 l 472 1093 l 546 1093 l 585 924 l 529 924 z "},"õ":{"ha":554,"x_min":76,"x_max":659,"o":"m 519 486 q 522 533 524 511 q 510 572 519 555 q 486 597 500 588 q 452 607 471 607 l 359 607 q 322 597 340 607 q 287 572 303 588 q 259 533 271 555 q 241 486 248 511 l 216 364 q 213 317 211 339 q 225 278 216 295 q 249 252 234 262 q 283 243 264 243 l 375 243 q 414 252 395 243 q 449 278 433 262 q 476 316 465 294 q 493 364 488 338 l 519 486 m 559 243 q 527 149 549 192 q 469 71 505 106 q 398 18 434 35 q 323 0 362 0 l 231 0 q 114 71 154 0 q 98 243 76 142 l 175 607 q 208 701 186 658 q 265 779 230 743 q 412 850 336 850 l 504 850 q 571 832 543 850 q 618 779 600 815 q 636 607 659 708 l 559 243 m 623 972 q 572 935 597 947 q 519 924 547 924 q 500 930 511 924 q 479 947 490 936 q 437 972 456 972 q 385 961 412 972 q 335 924 359 949 l 355 1021 q 405 1058 379 1046 q 458 1069 431 1069 q 477 1063 467 1069 q 500 1044 488 1057 q 541 1021 522 1021 q 643 1069 594 1021 l 623 972 z "},"ö":{"ha":554,"x_min":76,"x_max":659,"o":"m 519 486 q 522 533 524 511 q 510 572 519 555 q 486 597 500 588 q 452 607 471 607 l 359 607 q 322 597 340 607 q 287 572 303 588 q 259 533 271 555 q 241 486 248 511 l 216 364 q 213 317 211 339 q 225 278 216 295 q 249 252 234 262 q 283 243 264 243 l 375 243 q 414 252 395 243 q 449 278 433 262 q 476 316 465 294 q 493 364 488 338 l 519 486 m 559 243 q 527 149 549 192 q 469 71 505 106 q 398 18 434 35 q 323 0 362 0 l 231 0 q 114 71 154 0 q 98 243 76 142 l 175 607 q 208 701 186 658 q 265 779 230 743 q 412 850 336 850 l 504 850 q 571 832 543 850 q 618 779 600 815 q 636 607 659 708 l 559 243 m 335 924 l 361 1044 l 453 1044 l 428 924 l 335 924 m 519 924 l 546 1044 l 637 1044 l 612 924 l 519 924 z "},"÷":{"ha":461,"x_min":126,"x_max":517,"o":"m 184 85 l 221 256 l 350 256 l 314 85 l 184 85 m 126 376 l 147 473 l 517 473 l 496 376 l 126 376 m 293 596 l 329 765 l 458 765 l 422 596 l 293 596 z "},"ø":{"ha":554,"x_min":7,"x_max":726,"o":"m 489 597 q 472 605 481 603 q 452 607 462 607 l 359 607 q 322 597 340 607 q 287 572 303 588 q 259 533 271 555 q 241 486 248 511 l 216 364 q 212 323 210 342 q 221 286 214 303 l 489 597 m 519 486 q 514 566 528 532 l 245 254 q 263 246 254 249 q 283 243 273 243 l 375 243 q 414 252 395 243 q 449 278 433 262 q 476 316 465 294 q 493 364 488 338 l 519 486 m 642 714 q 644 663 645 689 q 636 607 644 636 l 559 243 q 527 149 549 192 q 469 71 505 106 q 398 18 434 35 q 323 0 362 0 l 231 0 q 106 92 143 0 l 28 0 l 7 36 l 93 138 q 92 188 91 161 q 98 243 92 214 l 175 607 q 208 701 186 658 q 265 779 230 743 q 412 850 336 850 l 504 850 q 629 760 592 850 l 707 850 l 726 814 l 642 714 z "},"ù":{"ha":554,"x_min":76,"x_max":689,"o":"m 559 243 q 527 149 549 192 q 469 71 505 106 q 398 18 434 35 q 323 0 362 0 l 231 0 q 114 71 154 0 q 98 243 76 142 l 228 850 l 319 850 l 216 364 q 213 317 211 339 q 225 278 216 295 q 249 252 234 262 q 283 243 264 243 l 375 243 q 414 252 395 243 q 449 278 433 262 q 476 316 465 294 q 493 364 488 338 l 597 850 l 689 850 l 559 243 m 446 924 l 407 1093 l 481 1093 l 501 924 l 446 924 z "},"ú":{"ha":554,"x_min":76,"x_max":689,"o":"m 559 243 q 527 149 549 192 q 469 71 505 106 q 398 18 434 35 q 323 0 362 0 l 231 0 q 114 71 154 0 q 98 243 76 142 l 228 850 l 319 850 l 216 364 q 213 317 211 339 q 225 278 216 295 q 249 252 234 262 q 283 243 264 243 l 375 243 q 414 252 395 243 q 449 278 433 262 q 476 316 465 294 q 493 364 488 338 l 597 850 l 689 850 l 559 243 m 501 924 l 446 924 l 538 1093 l 611 1093 l 501 924 z "},"û":{"ha":554,"x_min":76,"x_max":689,"o":"m 559 243 q 527 149 549 192 q 469 71 505 106 q 398 18 434 35 q 323 0 362 0 l 231 0 q 114 71 154 0 q 98 243 76 142 l 228 850 l 319 850 l 216 364 q 213 317 211 339 q 225 278 216 295 q 249 252 234 262 q 283 243 264 243 l 375 243 q 414 252 395 243 q 449 278 433 262 q 476 316 465 294 q 493 364 488 338 l 597 850 l 689 850 l 559 243 m 529 924 l 494 1025 l 418 924 l 364 924 l 472 1093 l 546 1093 l 585 924 l 529 924 z "},"ü":{"ha":554,"x_min":76,"x_max":689,"o":"m 559 243 q 527 149 549 192 q 469 71 505 106 q 398 18 434 35 q 323 0 362 0 l 231 0 q 114 71 154 0 q 98 243 76 142 l 228 850 l 319 850 l 216 364 q 213 317 211 339 q 225 278 216 295 q 249 252 234 262 q 283 243 264 243 l 375 243 q 414 252 395 243 q 449 278 433 262 q 476 316 465 294 q 493 364 488 338 l 597 850 l 689 850 l 559 243 m 335 924 l 361 1044 l 453 1044 l 428 924 l 335 924 m 519 924 l 546 1044 l 637 1044 l 612 924 l 519 924 z "},"ý":{"ha":554,"x_min":76,"x_max":689,"o":"m 482 -122 q 393 -294 460 -225 q 320 -348 357 -330 q 245 -366 284 -366 l 153 -366 l 205 -122 l 297 -122 q 336 -113 317 -122 q 371 -87 355 -103 q 398 -48 387 -71 q 415 0 410 -26 l 432 82 q 385 20 424 42 q 355 4 370 9 q 323 0 339 0 l 231 0 q 117 72 152 0 q 98 243 76 144 l 228 850 l 319 850 l 216 364 q 213 317 211 339 q 225 278 216 295 q 249 252 234 262 q 283 243 264 243 l 375 243 q 414 252 395 243 q 449 278 433 262 q 476 316 465 294 q 493 364 488 338 l 597 850 l 689 850 l 482 -122 m 501 924 l 446 924 l 538 1093 l 611 1093 l 501 924 z "},"þ":{"ha":554,"x_min":-5,"x_max":623,"o":"m 493 364 q 496 412 498 389 q 485 451 494 434 q 460 477 475 467 q 427 486 446 486 l 241 486 l 191 243 l 375 243 q 413 252 394 243 q 448 278 432 262 q 476 317 465 295 q 493 364 488 339 m 559 243 q 469 72 539 144 q 323 0 399 0 l 139 0 l 86 -243 l -5 -243 l 253 972 l 345 972 l 294 729 l 479 729 q 593 657 555 729 q 617 579 612 621 q 611 486 623 536 l 559 243 z "},"ÿ":{"ha":554,"x_min":76,"x_max":689,"o":"m 482 -122 q 393 -294 460 -225 q 320 -348 357 -330 q 245 -366 284 -366 l 153 -366 l 205 -122 l 297 -122 q 336 -113 317 -122 q 371 -87 355 -103 q 398 -48 387 -71 q 415 0 410 -26 l 432 82 q 385 20 424 42 q 355 4 370 9 q 323 0 339 0 l 231 0 q 117 72 152 0 q 98 243 76 144 l 228 850 l 319 850 l 216 364 q 213 317 211 339 q 225 278 216 295 q 249 252 234 262 q 283 243 264 243 l 375 243 q 414 252 395 243 q 449 278 433 262 q 476 316 465 294 q 493 364 488 338 l 597 850 l 689 850 l 482 -122 m 335 924 l 361 1044 l 453 1044 l 428 924 l 335 924 m 519 924 l 546 1044 l 637 1044 l 612 924 l 519 924 z "},"¯":{"ha":437,"x_min":0,"x_max":437,"o":"m 0 850 l 0 972 l 437 972 l 437 850 l 0 850 z "},"ˉ":{"ha":437,"x_min":0,"x_max":437,"o":"m 0 850 l 0 972 l 437 972 l 437 850 l 0 850 z "},"ı":{"ha":184,"x_min":46,"x_max":319,"o":"m 46 0 l 228 850 l 319 850 l 139 0 l 46 0 z "},"ˇ":{"ha":314,"x_min":253,"x_max":473,"o":"m 364 802 l 290 802 l 253 972 l 309 972 l 342 869 l 419 972 l 473 972 l 364 802 z "},"˘":{"ha":1371,"x_min":61,"x_max":1310,"o":"m 465 293 l 465 518 l 543 518 l 543 293 l 465 293 m 812 160 l 521 160 l 547 220 l 790 220 l 694 456 l 693 456 l 693 517 l 760 517 l 760 693 l 465 693 l 465 911 l 329 911 l 329 456 l 151 456 l 151 61 l 852 61 l 812 160 m 1244 146 q 1092 236 1244 236 l 961 236 l 961 296 l 1104 296 q 1143 301 1125 296 q 1177 317 1161 307 q 1203 344 1194 330 q 1213 378 1213 359 q 1171 440 1213 420 q 1136 452 1155 449 q 1093 456 1116 456 l 757 456 l 921 60 l 1092 60 q 1150 62 1125 60 q 1190 72 1175 64 q 1244 146 1244 92 m 1310 136 q 1251 33 1310 71 q 1132 0 1204 0 l 90 0 l 90 515 l 267 515 l 267 911 l 122 911 l 122 839 l 61 839 l 72 972 l 597 972 l 597 911 l 530 911 l 530 753 l 822 753 l 822 515 l 1197 515 l 1197 633 l 1257 633 l 1257 456 l 1253 456 q 1271 423 1264 441 q 1278 382 1278 405 q 1260 314 1278 342 q 1207 269 1242 287 q 1310 136 1310 237 m 1194 793 l 1185 909 l 940 909 l 940 753 l 1071 753 l 1071 818 l 1131 818 l 1131 627 l 1071 627 l 1071 692 l 878 692 l 878 971 l 1253 971 l 1253 793 l 1194 793 z "},"˚":{"ha":314,"x_min":209,"x_max":456,"o":"m 407 827 q 409 864 411 846 q 399 895 406 882 q 380 916 392 908 q 354 924 369 924 q 324 916 339 924 q 295 895 309 908 q 272 864 282 882 q 258 827 262 846 q 257 788 254 806 q 266 757 259 770 q 285 736 273 744 q 313 729 297 729 q 342 736 328 729 q 370 757 357 744 q 393 788 383 770 q 407 827 402 806 m 443 827 q 422 770 437 796 q 389 724 408 745 q 347 691 370 702 q 301 681 324 681 q 261 691 279 681 q 232 724 243 702 q 222 827 209 764 q 277 929 235 887 q 319 961 296 950 q 364 972 342 972 q 404 961 386 972 q 433 929 422 950 q 443 827 456 888 z "},"−":{"ha":461,"x_min":126,"x_max":517,"o":"m 126 376 l 147 473 l 517 473 l 496 376 l 126 376 z "}," ":{"ha":415,"x_min":0,"x_max":0,"o":""}}}
